<?xml version="1.0" encoding="utf-8"?>
<!-- Generator: Adobe Illustrator 16.0.0, SVG Export Plug-In . SVG Version: 6.00 Build 0)  -->
<!DOCTYPE svg PUBLIC "-//W3C//DTD SVG 1.1//EN" "http://www.w3.org/Graphics/SVG/1.1/DTD/svg11.dtd">
<svg version="1.1" id="Layer_1" xmlns="http://www.w3.org/2000/svg" xmlns:xlink="http://www.w3.org/1999/xlink" x="0px" y="0px"
	 width="200px" height="200px" viewBox="0 0 200 200" enable-background="new 0 0 200 200" xml:space="preserve">
<g>
	<g>
		<path fill="#FCF295" d="M174.885,98.141c0.965-44.061-33.974-80.544-78.035-81.503C52.788,15.684,16.298,50.62,15.347,94.674
			c-0.964,44.061,33.975,80.557,78.036,81.509C137.444,177.148,173.935,142.196,174.885,98.141z"/>
	</g>
	<g>
		<path fill="#ADEA8B" d="M189.938,113.851c0.951-44.055-33.987-80.544-78.049-81.502c-44.049-0.958-80.552,33.988-81.503,78.036
			c-0.964,44.062,33.988,80.552,78.036,81.509C152.483,192.853,188.974,157.912,189.938,113.851z"/>
	</g>
	<g>
		<path fill="#A4D87C" d="M175.315,66.062c3.454,9.227,5.278,19.248,5.043,29.712c-0.95,44.055-37.454,78.995-81.502,78.042
			c-26.286-0.579-49.313-13.794-63.427-33.714c11.117,29.656,39.396,51.066,72.993,51.789c44.062,0.96,80.552-33.98,81.516-78.042
			C190.315,96.075,184.855,79.537,175.315,66.062z"/>
	</g>
	<g>
		<path d="M17.001,99.418c-3.961-0.085-7.115-3.382-7.024-7.344c0.183-8.418,1.577-16.733,4.131-24.728
			c1.225-3.786,5.265-5.872,9.044-4.653c3.779,1.205,5.864,5.246,4.653,9.038c-2.137,6.673-3.298,13.619-3.454,20.656
			C24.261,96.349,20.977,99.503,17.001,99.418z"/>
	</g>
	<g>
		<path d="M30.972,56.014c-1.355-0.032-2.711-0.443-3.91-1.271c-3.284-2.248-4.105-6.718-1.85-9.989
			c3.883-5.655,8.458-10.843,13.605-15.449c2.958-2.639,7.506-2.385,10.152,0.567c2.646,2.964,2.397,7.506-0.574,10.151
			c-4.287,3.832-8.106,8.171-11.337,12.87C35.625,54.972,33.318,56.054,30.972,56.014z"/>
	</g>
	<g>
		<path d="M60.607,30.126c-2.567-0.059-5.017-1.486-6.268-3.929c-1.799-3.538-0.378-7.865,3.154-9.667
			c12.85-6.546,27.133-9.836,41.324-9.53V6.998c3.976,0.088,7.128,3.375,7.038,7.34c-0.078,3.975-3.361,7.122-7.336,7.037
			c-11.821-0.261-23.758,2.502-34.509,7.963C62.914,29.898,61.754,30.146,60.607,30.126z"/>
	</g>
	<g>
		<path d="M95.051,180.928c-47.958-1.057-86.116-40.902-85.073-88.854c0.091-3.975,3.375-7.115,7.337-7.031
			c3.975,0.084,7.129,3.369,7.038,7.344c-0.86,40.022,30.99,73.292,71.012,74.16c40.021,0.865,73.292-30.984,74.166-71.006
			c0.873-40.028-30.989-73.299-71.011-74.166c-3.975-0.091-7.116-3.375-7.038-7.347c0.092-3.965,3.389-7.115,7.337-7.031
			c47.958,1.042,86.13,40.897,85.074,88.856C182.861,143.8,142.996,181.957,95.051,180.928z"/>
	</g>
	<g>
		<path d="M95.077,179.729c-34.978-0.769-65.682-22.37-78.245-55.049c-0.339-0.898-0.456-1.876-0.352-2.826
			c1.107-9.723,5.03-18.37,11.351-24.99c8.406-8.83,20.396-13.541,33.741-13.247c15.117,0.326,30.717,7.103,42.784,18.604
			c22.768,21.678,27.485,54.284,10.739,74.224c-0.912,1.081-2.177,1.812-3.571,2.053
			C106.076,179.429,100.537,179.845,95.077,179.729z M28.574,121.781c11.129,27.335,37.168,45.319,66.763,45.964
			c3.949,0.085,7.951-0.156,11.912-0.71c11.013-15.254,6.386-39.449-11.156-56.142c-9.93-9.462-22.61-15.04-34.77-15.3
			c-9.943-0.222-18.753,3.167-24.826,9.534C32.302,109.53,29.591,115.265,28.574,121.781z"/>
	</g>
	<g>
		<path d="M164.721,80.913L164.721,80.913c-15.104-0.333-30.678-7.096-42.719-18.564C108.291,49.29,100.537,31.43,101.28,14.583
			c0.078-1.678,0.848-3.249,2.124-4.321c1.291-1.088,2.984-1.573,4.626-1.361c34.471,4.457,63.401,30.094,72.017,63.782
			c0.403,1.597,0.13,3.297-0.757,4.691c-0.886,1.394-2.307,2.359-3.936,2.672C171.94,80.697,168.356,80.984,164.721,80.913z
			 M113.543,22.053c1.421,11.312,7.402,22.734,16.721,31.616c10.283,9.8,23.601,15.463,36.099,15.273
			C157.878,45.537,137.757,27.676,113.543,22.053z"/>
	</g>
</g>
</svg>
