<?xml version="1.0" encoding="utf-8"?>
<!-- Generator: Adobe Illustrator 16.0.0, SVG Export Plug-In . SVG Version: 6.00 Build 0)  -->
<!DOCTYPE svg PUBLIC "-//W3C//DTD SVG 1.1//EN" "http://www.w3.org/Graphics/SVG/1.1/DTD/svg11.dtd">
<svg version="1.1" id="Layer_1" xmlns="http://www.w3.org/2000/svg" xmlns:xlink="http://www.w3.org/1999/xlink" x="0px" y="0px"
	 width="200px" height="200px" viewBox="0 0 200 200" enable-background="new 0 0 200 200" xml:space="preserve">
<g>
	<g>
		<g>
			<path fill="#59C9BE" d="M116.454,141.128c-46.4,11.14-87.483,0.114-93.535-25.097C16.865,90.819,48.47,62.347,94.869,51.209
				c46.396-11.137,87.482-0.113,93.532,25.097C194.455,101.517,162.85,129.992,116.454,141.128z M98.222,65.187
				c-35.655,8.56-62.376,29.979-58.344,46.774c4.03,16.791,37.562,23.75,73.223,15.194c35.654-8.561,62.374-29.985,58.339-46.775
				C167.409,63.584,133.883,56.627,98.222,65.187z"/>
		</g>
	</g>
	<g>
		<g>
			<path fill="#4BB7AA" d="M42.204,117.047c-1.09-1.577-1.89-3.271-2.326-5.086c-4.032-16.796,22.689-38.215,58.344-46.774
				c24.661-5.92,48.3-4.41,61.873,2.634c-8.999-13.021-39.091-17.738-70.892-10.105c-35.659,8.56-62.376,29.979-58.344,46.774
				C32.101,109.666,36.154,113.908,42.204,117.047z"/>
		</g>
		<g>
			<path fill="#4BB7AA" d="M173.07,56.895c3.075,3.516,5.247,7.504,6.312,11.941c6.05,25.21-25.55,53.686-71.951,64.821
				c-31.718,7.614-60.946,4.864-78.201-5.685c14.386,16.455,48.994,22.334,87.225,13.155c46.396-11.136,78.001-39.611,71.946-64.822
				C186.488,68.332,181.062,61.784,173.07,56.895z"/>
		</g>
	</g>
	<g>
		<g>
			<path d="M104.54,126.133c-39.15,9.398-74.829,1.086-79.538-18.525c-4.707-19.611,23.314-43.215,62.458-52.611
				c39.149-9.399,74.829-1.089,79.54,18.525C171.707,93.136,143.688,116.735,104.54,126.133z M89.391,63.033
				c-29.72,7.136-60.133,26.889-56.351,42.644c3.784,15.757,39.849,19.554,69.568,12.419c29.721-7.133,60.134-26.888,56.353-42.646
				C155.18,59.694,119.111,55.898,89.391,63.033z"/>
		</g>
		<g>
			<path d="M135.906,129.929c-1.878,0.451-3.879-0.477-4.716-2.3c-0.953-2.075-0.039-4.528,2.034-5.477
				c12.406-5.689,29.868-14.93,38.234-29.464c7.865-13.676,3.032-30.312-11.247-38.696c-14.572-8.565-35.047-11.054-60.847-7.393
				c-2.258,0.321-4.351-1.252-4.672-3.512c-0.316-2.258,1.272-4.358,3.511-4.672c27.702-3.93,49.973-1.088,66.198,8.448
				c18.299,10.75,24.416,32.221,14.221,49.946c-9.441,16.4-27.381,26.173-41.952,32.853
				C136.418,129.778,136.165,129.865,135.906,129.929z"/>
		</g>
		<g>
			<path d="M99.754,46.526c-0.126,0.031-0.253,0.056-0.387,0.074c-8.31,1.182-16.357,2.961-23.906,5.294
				c-2.233,0.697-4.492-0.55-5.168-2.729c-0.674-2.183,0.55-4.496,2.728-5.169c7.967-2.46,16.438-4.337,25.183-5.58
				c2.261-0.321,4.354,1.251,4.677,3.51C103.182,44.055,101.805,46.034,99.754,46.526z"/>
		</g>
		<g>
			<path d="M57.866,58.642c-1.869,0.447-3.857-0.461-4.704-2.271c-0.966-2.067-0.075-4.526,1.993-5.495
				c2.068-0.969,4.156-1.882,6.2-2.716c2.12-0.856,4.529,0.153,5.388,2.268c0.861,2.116-0.153,4.525-2.268,5.389
				c-1.915,0.779-3.872,1.635-5.815,2.545C58.396,58.484,58.133,58.577,57.866,58.642z"/>
		</g>
		<g>
			<path d="M31.297,76.136c-1.414,0.339-2.959-0.078-4.013-1.227c-1.54-1.679-1.431-4.294,0.251-5.838
				c3.91-3.589,8.249-6.953,12.887-9.999c1.908-1.253,4.473-0.72,5.726,1.188c1.253,1.909,0.718,4.47-1.189,5.723
				c-4.266,2.804-8.25,5.889-11.834,9.179C32.587,75.654,31.959,75.978,31.297,76.136z"/>
		</g>
		<g>
			<path d="M76.656,143.892c-0.253,0.059-0.516,0.098-0.784,0.113c-28.374,1.267-47.553-4.568-58.641-17.843
				c-16.623-19.901-4.837-43.191,10.304-57.091c1.684-1.541,4.297-1.432,5.84,0.251c1.545,1.682,1.431,4.297-0.25,5.84
				c-13.056,11.984-22.422,30.287-9.546,45.702c9.322,11.16,26.305,16.027,51.924,14.881c2.278-0.103,4.209,1.664,4.312,3.941
				C79.905,141.699,78.542,143.44,76.656,143.892z"/>
		</g>
	</g>
	<g>
		<path fill="#F7EF92" d="M131.293,142.052c2.219,9.243-3.479,18.543-12.727,20.763c-9.247,2.222-18.546-3.479-20.769-12.723
			c-2.219-9.248,3.48-18.547,12.729-20.767C119.773,127.106,129.073,132.803,131.293,142.052z"/>
	</g>
	<g>
		<path fill="#EFE160" d="M122.183,130.638c2.126,2.155,3.724,4.883,4.478,8.044c2.219,9.243-3.48,18.543-12.727,20.765
			c-4.079,0.979-8.168,0.414-11.656-1.319c4.097,4.162,10.2,6.152,16.289,4.688c9.247-2.22,14.945-11.52,12.727-20.763
			C130.053,136.884,126.602,132.83,122.183,130.638z"/>
	</g>
	<g>
		<path d="M113.252,162.439c-11.092,2.662-22.284-4.197-24.949-15.291c-2.662-11.094,4.198-22.286,15.293-24.947
			c11.092-2.662,22.28,4.194,24.948,15.286C131.205,148.583,124.343,159.775,113.252,162.439z M105.523,130.238
			c-6.665,1.599-10.782,8.319-9.181,14.98c1.599,6.662,8.319,10.782,14.981,9.181c6.658-1.599,10.78-8.317,9.179-14.979
			C118.902,132.757,112.186,128.639,105.523,130.238z"/>
	</g>
	<g>
		<path d="M108.272,141.348c-9.111,2.185-16.237,0.778-16.679,0.685c-1.789-0.369-2.938-2.119-2.568-3.907
			c0.37-1.787,2.127-2.93,3.901-2.569c0.204,0.043,13.857,2.615,26.37-6.396c1.485-1.066,3.548-0.73,4.613,0.752
			c1.066,1.481,0.73,3.546-0.749,4.616C118.1,138.174,112.925,140.229,108.272,141.348z"/>
	</g>
	<g>
		<path d="M113.116,161.622c-1.772,0.423-3.559-0.672-3.982-2.442l-2.924-12.173c-0.429-1.774,0.665-3.56,2.442-3.985
			c1.776-0.427,3.558,0.669,3.986,2.442l2.92,12.17C115.987,159.407,114.892,161.194,113.116,161.622z"/>
	</g>
</g>
</svg>
