<?xml version="1.0" encoding="utf-8"?>
<!-- Generator: Adobe Illustrator 16.0.0, SVG Export Plug-In . SVG Version: 6.00 Build 0)  -->
<!DOCTYPE svg PUBLIC "-//W3C//DTD SVG 1.1//EN" "http://www.w3.org/Graphics/SVG/1.1/DTD/svg11.dtd">
<svg version="1.1" id="Layer_1" xmlns="http://www.w3.org/2000/svg" xmlns:xlink="http://www.w3.org/1999/xlink" x="0px" y="0px"
	 width="200px" height="200px" viewBox="0 0 200 200" enable-background="new 0 0 200 200" xml:space="preserve">
<g>
	<g>
		<path fill="#F78989" d="M190,83.876c0-26.329-21.346-47.671-47.67-47.671c-13.877,0-26.362,5.931-35.072,15.391
			c-8.714-9.46-21.198-15.391-35.07-15.391c-26.33,0-47.675,21.342-47.675,47.671c0,0-4.972,47.814,82.614,92.31v0.065
			c0.02-0.01,0.041-0.023,0.065-0.034c0.023,0.011,0.044,0.024,0.065,0.034v-0.065c60.28-30.627,76.714-62.821,81.104-79.92
			C189.428,92.314,190,88.163,190,83.876z"/>
	</g>
	<g>
		<path fill="#E26D6D" d="M171.991,46.572c6.488,8.145,10.373,18.452,10.373,29.671c0,4.286-0.576,8.438-1.641,12.39
			c-4.389,17.099-20.819,49.292-81.103,79.917v0.068c-0.021-0.01-0.042-0.022-0.065-0.036c-0.024,0.014-0.045,0.026-0.065,0.036
			v-0.068c-22.777-11.572-39.282-23.366-51.257-34.485c12.266,13.259,30.821,27.858,58.894,42.122v0.065
			c0.02-0.01,0.041-0.023,0.065-0.034c0.023,0.011,0.044,0.024,0.065,0.034v-0.065c60.28-30.627,76.714-62.821,81.104-79.92
			c1.065-3.952,1.638-8.104,1.638-12.39C190,68.765,182.959,55.308,171.991,46.572z"/>
	</g>
	<g>
		<path d="M96.894,172.177c-0.644,0-1.298-0.15-1.908-0.46C8.108,127.584,9.721,79.785,10.06,75.457
			c0.103-28.529,23.347-51.709,51.898-51.709c12.992,0,25.542,4.929,35.072,13.655c9.523-8.726,22.078-13.655,35.07-13.655
			c28.616,0,51.896,23.281,51.896,51.896c0,4.545-0.598,9.081-1.782,13.486c-0.604,2.254-2.914,3.594-5.177,2.984
			c-2.252-0.604-3.59-2.921-2.982-5.176c0.988-3.687,1.493-7.49,1.493-11.294c0-23.956-19.493-43.447-43.447-43.447
			c-12.104,0-23.755,5.112-31.964,14.026c-1.595,1.739-4.611,1.739-6.214,0.001C85.71,37.31,74.059,32.197,61.958,32.197
			c-23.957,0-43.45,19.491-43.45,43.447c0,0.147-0.005,0.294-0.021,0.436c-0.037,0.426-3.108,45.72,80.322,88.104
			c2.081,1.056,2.913,3.599,1.855,5.68C99.921,171.33,98.434,172.177,96.894,172.177z"/>
	</g>
	<g>
		<path d="M135.138,148.706c-1.274,0-2.539-0.579-3.369-1.672c-1.411-1.857-1.045-4.51,0.812-5.918
			c22.709-17.235,36.659-35.447,41.46-54.131c0.584-2.26,2.884-3.621,5.143-3.042c2.26,0.583,3.622,2.885,3.04,5.145
			c-5.286,20.575-20.272,40.346-44.534,58.759C136.925,148.425,136.029,148.706,135.138,148.706z"/>
	</g>
	<g>
		<path d="M119.279,159.874c-1.361,0-2.699-0.663-3.516-1.882c-1.296-1.939-0.774-4.562,1.166-5.859
			c0.881-0.59,1.77-1.251,2.663-1.925c1.817-1.355,3.696-2.759,5.782-3.835c2.068-1.073,4.62-0.262,5.695,1.812
			c1.069,2.071,0.261,4.62-1.813,5.692c-1.466,0.76-2.99,1.897-4.604,3.101c-1.022,0.762-2.029,1.515-3.03,2.181
			C120.901,159.643,120.086,159.874,119.279,159.874z"/>
	</g>
	<g>
		<path d="M96.896,172.177c-1.748,0-3.382-1.094-3.992-2.838c-0.767-2.202,0.399-4.615,2.602-5.379
			c5.229-1.821,10.028-4.802,13.617-7.198c1.947-1.293,4.567-0.77,5.859,1.172c1.294,1.94,0.77,4.565-1.171,5.86
			c-4.011,2.67-9.397,6.012-15.525,8.146C97.827,172.098,97.356,172.177,96.896,172.177z"/>
	</g>
</g>
</svg>
