<?xml version="1.0" encoding="utf-8"?>
<!-- Generator: Adobe Illustrator 16.0.0, SVG Export Plug-In . SVG Version: 6.00 Build 0)  -->
<!DOCTYPE svg PUBLIC "-//W3C//DTD SVG 1.1//EN" "http://www.w3.org/Graphics/SVG/1.1/DTD/svg11.dtd">
<svg version="1.1" id="Layer_1" xmlns="http://www.w3.org/2000/svg" xmlns:xlink="http://www.w3.org/1999/xlink" x="0px" y="0px"
	 width="200px" height="200px" viewBox="0 0 200 200" enable-background="new 0 0 200 200" xml:space="preserve">
<g>
	<path fill="#FFFFFF" d="M180.832,54.737c-8.448-14.467-19.905-25.921-34.372-34.365c-14.474-8.447-30.267-12.668-47.4-12.668
		c-17.134,0-32.935,4.222-47.409,12.668C37.185,28.816,25.73,40.27,17.286,54.737C8.839,69.209,4.617,85.009,4.617,102.145
		c0,20.576,6.007,39.081,18.011,55.515c12.013,16.435,27.526,27.813,46.547,34.122c2.211,0.414,3.854,0.125,4.915-0.854
		c1.069-0.985,1.599-2.22,1.599-3.692c0-0.243-0.022-2.456-0.058-6.642c-0.045-4.179-0.068-7.824-0.068-10.943l-2.823,0.493
		c-1.806,0.332-4.083,0.472-6.823,0.43c-2.749-0.039-5.602-0.324-8.549-0.862c-2.954-0.531-5.698-1.756-8.238-3.685
		c-2.543-1.926-4.341-4.446-5.409-7.562l-1.231-2.83c-0.817-1.887-2.108-3.971-3.87-6.271c-1.768-2.292-3.55-3.854-5.349-4.674
		l-0.864-0.61c-0.574-0.414-1.104-0.904-1.599-1.481c-0.494-0.567-0.862-1.144-1.105-1.717c-0.243-0.575-0.045-1.047,0.612-1.415
		c0.657-0.378,1.851-0.553,3.568-0.553l2.459,0.368c1.638,0.325,3.672,1.311,6.088,2.946c2.417,1.644,4.407,3.773,5.962,6.397
		c1.887,3.36,4.156,5.919,6.823,7.686c2.668,1.764,5.352,2.639,8.056,2.639c2.704,0,5.042-0.206,7.009-0.611
		c1.968-0.413,3.809-1.024,5.533-1.843c0.738-5.498,2.749-9.721,6.023-12.668c-4.673-0.498-8.873-1.231-12.603-2.222
		c-3.73-0.979-7.584-2.576-11.556-4.798c-3.979-2.209-7.28-4.956-9.905-8.229c-2.617-3.279-4.774-7.591-6.448-12.915
		c-1.681-5.332-2.521-11.481-2.521-18.442c0-9.92,3.235-18.365,9.714-25.338c-3.037-7.458-2.75-15.813,0.862-25.079
		c2.372-0.743,5.901-0.183,10.575,1.658c4.673,1.843,8.092,3.428,10.265,4.731c2.175,1.312,3.916,2.424,5.226,3.324
		c7.627-2.129,15.499-3.197,23.613-3.197c8.113,0,15.983,1.068,23.611,3.197l4.672-2.956c3.191-1.967,6.965-3.766,11.312-5.409
		c4.341-1.635,7.665-2.084,9.964-1.349c3.685,9.266,4.017,17.621,0.98,25.086c6.479,6.965,9.713,15.41,9.713,25.331
		c0,6.961-0.84,13.133-2.521,18.505s-3.847,9.677-6.515,12.911c-2.668,3.243-5.984,5.963-9.964,8.181
		c-3.972,2.211-7.826,3.812-11.556,4.79c-3.729,0.987-7.93,1.725-12.602,2.219c4.26,3.692,6.39,9.507,6.39,17.46v25.948
		c0,1.473,0.516,2.707,1.54,3.686c1.024,0.978,2.638,1.274,4.856,0.86c19.021-6.316,34.534-17.688,46.539-34.129
		c12.013-16.435,18.019-34.939,18.019-55.516C193.492,85.009,189.27,69.209,180.832,54.737L180.832,54.737z"/>
</g>
</svg>
