<?xml version="1.0" encoding="utf-8"?>
<!-- Generator: Adobe Illustrator 16.0.0, SVG Export Plug-In . SVG Version: 6.00 Build 0)  -->
<!DOCTYPE svg PUBLIC "-//W3C//DTD SVG 1.1//EN" "http://www.w3.org/Graphics/SVG/1.1/DTD/svg11.dtd">
<svg version="1.1" id="Layer_1" xmlns="http://www.w3.org/2000/svg" xmlns:xlink="http://www.w3.org/1999/xlink" x="0px" y="0px"
	 width="595.279px" height="247.432px" viewBox="0 0 595.279 247.432" enable-background="new 0 0 595.279 247.432"
	 xml:space="preserve">
<rect y="0" fill="none" width="595.279" height="247.432"/>
<g>
	<circle fill="#59C9BE" cx="440.338" cy="158.485" r="23.522"/>
	<polygon fill="#F78989" points="194.1,144.74 117.111,144.74 194.1,67.752 194.1,67.752 	"/>
	<g>
		<g>
			<circle fill="#FCF295" cx="414.684" cy="181.19" r="11.958"/>
		</g>
		<g>
			<circle fill="#ADEA8B" cx="416.938" cy="183.546" r="11.959"/>
		</g>
		<g>
			<path fill="#A4D87C" d="M426.703,176.644c0.518,1.383,0.791,2.885,0.756,4.452c-0.143,6.604-5.613,11.839-12.215,11.696
				c-3.939-0.086-7.391-2.066-9.506-5.054c1.666,4.445,5.903,7.653,10.938,7.763c6.604,0.145,12.072-5.093,12.217-11.695
				C428.951,181.142,428.133,178.663,426.703,176.644z"/>
		</g>
		<g>
			<path d="M402.977,181.642c-0.594-0.013-1.065-0.506-1.053-1.1c0.027-1.263,0.236-2.509,0.619-3.707
				c0.184-0.567,0.789-0.88,1.355-0.697c0.565,0.181,0.879,0.787,0.696,1.354c-0.319,1.001-0.494,2.042-0.518,3.097
				C404.064,181.183,403.572,181.654,402.977,181.642z"/>
		</g>
		<g>
			<path d="M405.07,175.137c-0.203-0.005-0.406-0.065-0.586-0.19c-0.492-0.336-0.615-1.007-0.277-1.496
				c0.582-0.848,1.268-1.625,2.039-2.315c0.443-0.396,1.125-0.357,1.521,0.086c0.396,0.443,0.359,1.125-0.086,1.521
				c-0.643,0.573-1.215,1.225-1.698,1.928C405.768,174.981,405.422,175.144,405.07,175.137z"/>
		</g>
		<g>
			<path d="M409.512,171.257c-0.385-0.008-0.752-0.223-0.938-0.588c-0.271-0.531-0.058-1.181,0.473-1.449
				c1.926-0.98,4.066-1.475,6.193-1.428v-0.001c0.596,0.013,1.067,0.506,1.055,1.101c-0.012,0.596-0.504,1.066-1.1,1.054
				c-1.771-0.037-3.562,0.375-5.173,1.194C409.857,171.224,409.684,171.261,409.512,171.257z"/>
		</g>
		<g>
			<path d="M414.674,193.857c-7.188-0.156-12.906-6.13-12.75-13.314c0.015-0.597,0.506-1.067,1.101-1.056
				c0.596,0.015,1.067,0.507,1.055,1.103c-0.129,5.998,4.645,10.982,10.643,11.113s10.984-4.644,11.115-10.643
				s-4.645-10.984-10.643-11.115c-0.597-0.013-1.066-0.506-1.056-1.101c0.015-0.594,0.509-1.066,1.101-1.054
				c7.188,0.155,12.908,6.13,12.75,13.315C427.834,188.294,421.859,194.013,414.674,193.857z"/>
		</g>
		<g>
			<path d="M414.678,193.678c-5.242-0.114-9.844-3.353-11.727-8.25c-0.051-0.135-0.068-0.28-0.053-0.424
				c0.166-1.456,0.754-2.753,1.7-3.745c1.261-1.323,3.058-2.029,5.058-1.985c2.266,0.051,4.604,1.065,6.412,2.788
				c3.412,3.25,4.118,8.136,1.608,11.124c-0.137,0.163-0.326,0.272-0.535,0.309C416.326,193.633,415.496,193.695,414.678,193.678z
				 M404.711,184.993c1.668,4.098,5.57,6.793,10.006,6.889c0.592,0.014,1.191-0.023,1.785-0.105c1.65-2.287,0.957-5.913-1.672-8.414
				c-1.488-1.419-3.389-2.254-5.211-2.293c-1.49-0.032-2.812,0.476-3.721,1.429C405.27,183.157,404.863,184.017,404.711,184.993z"/>
		</g>
		<g>
			<path d="M425.115,178.868L425.115,178.868c-2.265-0.05-4.599-1.063-6.402-2.781c-2.055-1.958-3.217-4.635-3.104-7.159
				c0.012-0.251,0.127-0.487,0.317-0.647c0.193-0.162,0.447-0.235,0.693-0.203c5.166,0.668,9.502,4.51,10.793,9.559
				c0.061,0.239,0.02,0.495-0.113,0.703c-0.133,0.21-0.346,0.354-0.59,0.401C426.197,178.837,425.66,178.88,425.115,178.868z
				 M417.445,170.048c0.213,1.695,1.108,3.406,2.506,4.738c1.541,1.469,3.537,2.315,5.41,2.288
				C424.09,173.567,421.074,170.89,417.445,170.048z"/>
		</g>
	</g>
	<g>
		
			<line fill="none" stroke="#000000" stroke-width="5" stroke-linejoin="round" stroke-miterlimit="10" x1="157.729" y1="173.755" x2="188.904" y2="181.098"/>
		
			<line fill="none" stroke="#000000" stroke-width="5" stroke-linejoin="round" stroke-miterlimit="10" x1="155.879" y1="181.603" x2="187.057" y2="188.945"/>
	</g>
	<polyline fill="none" stroke="#000000" stroke-width="3" stroke-linejoin="round" stroke-miterlimit="10" points="434.617,152.346 
		441.584,151.586 439.873,144.79 446.838,144.029 445.127,137.234 452.094,136.473 450.381,129.68 457.348,128.918 455.635,122.123 
			"/>
	<polyline fill="none" stroke="#000000" stroke-width="3" stroke-linejoin="round" stroke-miterlimit="10" points="449.078,153.175 
		455.953,154.531 456.352,147.534 463.225,148.893 463.623,141.896 470.498,143.254 470.895,136.256 477.771,137.613 
		478.168,130.617 	"/>
	<g>
		<g>
			<g>
				
					<text transform="matrix(1 0 0 1 258.8784 119.0842)" fill="#F8E563" font-family="'Inconsolata-Bold'" font-size="51.583" letter-spacing="2">PET</text>
				<text transform="matrix(1 0 0 1 254.8584 115.0618)" font-family="'Inconsolata-Bold'" font-size="51.583" letter-spacing="2">PET</text>
			</g>
			<g>
				
					<text transform="matrix(1 0 0 1 187.9526 164.136)" fill="#F8E563" font-family="'Inconsolata-Bold'" font-size="51.583" letter-spacing="2">ESPECIAL</text>
				<text transform="matrix(1 0 0 1 183.9312 160.1125)" font-family="'Inconsolata-Bold'" font-size="51.583" letter-spacing="2">ESPECIAL</text>
			</g>
		</g>
		<rect x="177.77" y="148.683" fill="#F8E563" width="4.897" height="20.337"/>
		<rect x="175.436" y="146.757" width="4.899" height="20.337"/>
	</g>
	<g>
		<g>
			<g>
				<path fill="#FCF295" d="M443.799,98.993c1.387-21.561-15.18-34.389-15.18-34.389c-4.396,3.864-7.291,7.353-9.191,10.364
					c-2.299-0.695-4.701-1.303-7.186-1.823c-2.482-0.519-4.93-0.924-7.312-1.207c-0.537-3.521-1.793-7.877-4.27-13.18
					c0,0-20.318,5.117-27.688,25.427l0.015-0.057c-0.308,1.066-0.457,2.188-0.703,3.367c-3.254,15.554,10.396,29.412,29.953,33.5
					c19.559,4.088,37.617-3.141,40.867-18.695c0.247-1.178,0.659-2.258,0.704-3.367L443.799,98.993z"/>
			</g>
		</g>
		<g>
			<g>
				<path fill="#FCF295" d="M438.787,95.022c1.387-21.561-15.182-34.388-15.182-34.388c-4.396,3.865-7.289,7.354-9.191,10.366
					c-2.297-0.696-4.699-1.305-7.184-1.823c-2.484-0.52-4.931-0.925-7.312-1.209c-0.535-3.521-1.791-7.875-4.27-13.178
					c0,0-20.316,5.117-27.688,25.427l0.012-0.058c-0.303,1.066-0.457,2.188-0.7,3.367c-3.253,15.555,10.397,29.413,29.954,33.501
					c19.558,4.091,37.615-3.141,40.867-18.694c0.246-1.179,0.658-2.259,0.705-3.368L438.787,95.022z"/>
			</g>
			<g>
				<path fill="#BEC0C2" d="M442.322,96.736c1.389-21.561-15.181-34.389-15.181-34.389c-4.395,3.865-7.291,7.354-9.19,10.365
					c-2.297-0.695-4.699-1.305-7.185-1.823c-2.483-0.519-4.93-0.925-7.312-1.208c-0.535-3.521-1.791-7.876-4.271-13.18
					c0,0-20.317,5.117-27.688,25.428l0.014-0.058c-0.307,1.066-0.457,2.188-0.703,3.368c-3.252,15.553,10.396,29.409,29.955,33.501
					c19.558,4.089,37.615-3.142,40.867-18.695c0.246-1.178,0.658-2.258,0.705-3.367L442.322,96.736z"/>
			</g>
			<g>
				<g>
					<path fill="#97999B" d="M398.951,61.749c0.524,0.063,1.059,0.135,1.592,0.209c-0.703-2.891-1.85-6.226-3.646-10.064
						c0,0-0.253,0.065-0.691,0.2C397.695,55.837,398.539,59.042,398.951,61.749z"/>
				</g>
				<g>
					<path fill="#97999B" d="M440.049,92.069l-0.012,0.058c0.756-11.751-3.82-20.901-8.144-26.8
						c3.515,5.797,6.554,13.743,5.927,23.477l0.01-0.057c-0.047,1.108-0.457,2.188-0.703,3.368
						c-3.25,15.554-21.309,22.782-40.867,18.693c-10.821-2.262-19.826-7.518-25.17-14.394c4.801,8.49,14.883,15.103,27.387,17.717
						c19.56,4.088,37.615-3.14,40.867-18.694C439.592,94.258,440.002,93.177,440.049,92.069z"/>
				</g>
			</g>
			<g>
				<g>
					<defs>
						<path id="SVGID_1_" d="M369.34,78.54c-0.399,1.034-0.457,2.188-0.705,3.367c-3.25,15.553,10.4,29.412,29.957,33.501
							c19.56,4.09,37.619-3.142,40.869-18.694c0.248-1.179,0.541-2.198,0.705-3.368l-0.014,0.058
							c1.387-21.561-15.181-34.388-15.181-34.388c-4.397,3.865-7.293,7.353-9.19,10.365c-2.297-0.697-4.699-1.305-7.188-1.824
							c-2.479-0.519-4.928-0.925-7.311-1.207c-0.533-3.521-1.791-7.877-4.269-13.18c0,0-20.319,5.116-27.688,25.426L369.34,78.54"/>
					</defs>
					<clipPath id="SVGID_2_">
						<use xlink:href="#SVGID_1_"  overflow="visible"/>
					</clipPath>
					<g clip-path="url(#SVGID_2_)">
						<path d="M364.252,89.24c0.137,0.076,0.283,0.139,0.447,0.173l9.416,1.969c0.879,0.184,1.742-0.381,1.926-1.259
							c0.182-0.881-0.381-1.742-1.262-1.927l-9.414-1.969c-0.164-0.034-0.322-0.035-0.482-0.021L364.252,89.24z"/>
					</g>
				</g>
				<g>
					<defs>
						<path id="SVGID_7_" d="M369.34,78.54c-0.399,1.034-0.457,2.188-0.705,3.367c-3.25,15.553,10.4,29.412,29.957,33.501
							c19.56,4.09,37.619-3.142,40.869-18.694c0.248-1.179,0.541-2.198,0.705-3.368l-0.014,0.058
							c1.387-21.561-15.181-34.388-15.181-34.388c-4.397,3.865-7.293,7.353-9.19,10.365c-2.297-0.697-4.699-1.305-7.188-1.824
							c-2.479-0.519-4.928-0.925-7.311-1.207c-0.533-3.521-1.791-7.877-4.269-13.18c0,0-20.319,5.116-27.688,25.426L369.34,78.54"/>
					</defs>
					<clipPath id="SVGID_8_">
						<use xlink:href="#SVGID_7_"  overflow="visible"/>
					</clipPath>
					<g clip-path="url(#SVGID_8_)">
						<path d="M367.453,84.057c0.137,0.076,0.285,0.14,0.449,0.174l9.414,1.969c0.883,0.185,1.743-0.381,1.928-1.261
							c0.184-0.88-0.379-1.74-1.26-1.926l-9.416-1.969c-0.164-0.033-0.326-0.034-0.482-0.021L367.453,84.057z"/>
					</g>
				</g>
				<g>
					<defs>
						<path id="SVGID_9_" d="M369.34,78.54c-0.399,1.034-0.457,2.188-0.705,3.367c-3.25,15.553,10.4,29.412,29.957,33.501
							c19.56,4.09,37.619-3.142,40.869-18.694c0.248-1.179,0.541-2.198,0.705-3.368l-0.014,0.058
							c1.387-21.561-15.181-34.388-15.181-34.388c-4.397,3.865-7.293,7.353-9.19,10.365c-2.297-0.697-4.699-1.305-7.188-1.824
							c-2.479-0.519-4.928-0.925-7.311-1.207c-0.533-3.521-1.791-7.877-4.269-13.18c0,0-20.319,5.116-27.688,25.426L369.34,78.54"/>
					</defs>
					<clipPath id="SVGID_10_">
						<use xlink:href="#SVGID_9_"  overflow="visible"/>
					</clipPath>
					<g clip-path="url(#SVGID_10_)">
						<path d="M366.596,78.023c0.138,0.076,0.285,0.141,0.449,0.175l9.414,1.968c0.881,0.184,1.742-0.381,1.926-1.261
							c0.187-0.88-0.379-1.74-1.26-1.925l-9.416-1.968c-0.162-0.035-0.322-0.036-0.482-0.021L366.596,78.023z"/>
					</g>
				</g>
				<g>
					<defs>
						<path id="SVGID_11_" d="M369.34,78.54c-0.399,1.034-0.457,2.188-0.705,3.367c-3.25,15.553,10.4,29.412,29.957,33.501
							c19.56,4.09,37.619-3.142,40.869-18.694c0.248-1.179,0.541-2.198,0.705-3.368l-0.014,0.058
							c1.387-21.561-15.181-34.388-15.181-34.388c-4.397,3.865-7.293,7.353-9.19,10.365c-2.297-0.697-4.699-1.305-7.188-1.824
							c-2.479-0.519-4.928-0.925-7.311-1.207c-0.533-3.521-1.791-7.877-4.269-13.18c0,0-20.319,5.116-27.688,25.426L369.34,78.54"/>
					</defs>
					<clipPath id="SVGID_12_">
						<use xlink:href="#SVGID_11_"  overflow="visible"/>
					</clipPath>
					<g clip-path="url(#SVGID_12_)">
						<path d="M440.541,105.189c-0.156,0.016-0.314,0.015-0.48-0.02l-9.416-1.97c-0.879-0.185-1.444-1.047-1.26-1.926
							c0.187-0.88,1.047-1.443,1.924-1.26l9.42,1.969c0.162,0.035,0.312,0.099,0.447,0.175L440.541,105.189z"/>
					</g>
				</g>
				<g>
					<defs>
						<path id="SVGID_13_" d="M369.34,78.54c-0.399,1.034-0.457,2.188-0.705,3.367c-3.25,15.553,10.4,29.412,29.957,33.501
							c19.56,4.09,37.619-3.142,40.869-18.694c0.248-1.179,0.541-2.198,0.705-3.368l-0.014,0.058
							c1.387-21.561-15.181-34.388-15.181-34.388c-4.397,3.865-7.293,7.353-9.19,10.365c-2.297-0.697-4.699-1.305-7.188-1.824
							c-2.479-0.519-4.928-0.925-7.311-1.207c-0.533-3.521-1.791-7.877-4.269-13.18c0,0-20.319,5.116-27.688,25.426L369.34,78.54"/>
					</defs>
					<clipPath id="SVGID_14_">
						<use xlink:href="#SVGID_13_"  overflow="visible"/>
					</clipPath>
					<g clip-path="url(#SVGID_14_)">
						<path d="M439.684,99.156c-0.155,0.014-0.315,0.015-0.479-0.02l-9.416-1.968c-0.881-0.186-1.445-1.047-1.26-1.926
							c0.184-0.882,1.045-1.444,1.926-1.261l9.416,1.97c0.164,0.032,0.311,0.097,0.447,0.174L439.684,99.156z"/>
					</g>
				</g>
				<g>
					<defs>
						<path id="SVGID_15_" d="M369.34,78.54c-0.399,1.034-0.457,2.188-0.705,3.367c-3.25,15.553,10.4,29.412,29.957,33.501
							c19.56,4.09,37.619-3.142,40.869-18.694c0.248-1.179,0.541-2.198,0.705-3.368l-0.014,0.058
							c1.387-21.561-15.181-34.388-15.181-34.388c-4.397,3.865-7.293,7.353-9.19,10.365c-2.297-0.697-4.699-1.305-7.188-1.824
							c-2.479-0.519-4.928-0.925-7.311-1.207c-0.533-3.521-1.791-7.877-4.269-13.18c0,0-20.319,5.116-27.688,25.426L369.34,78.54"/>
					</defs>
					<clipPath id="SVGID_16_">
						<use xlink:href="#SVGID_15_"  overflow="visible"/>
					</clipPath>
					<g clip-path="url(#SVGID_16_)">
						<path d="M442.887,93.974c-0.155,0.014-0.315,0.014-0.479-0.021l-9.416-1.97c-0.879-0.184-1.445-1.047-1.261-1.926
							c0.183-0.88,1.048-1.442,1.927-1.259l9.416,1.969c0.164,0.033,0.311,0.096,0.446,0.172L442.887,93.974z"/>
					</g>
				</g>
				<g>
					<defs>
						<path id="SVGID_17_" d="M369.34,78.54c-0.399,1.034-0.457,2.188-0.705,3.367c-3.25,15.553,10.4,29.412,29.957,33.501
							c19.56,4.09,37.619-3.142,40.869-18.694c0.248-1.179,0.541-2.198,0.705-3.368l-0.014,0.058
							c1.387-21.561-15.181-34.388-15.181-34.388c-4.397,3.865-7.293,7.353-9.19,10.365c-2.297-0.697-4.699-1.305-7.188-1.824
							c-2.479-0.519-4.928-0.925-7.311-1.207c-0.533-3.521-1.791-7.877-4.269-13.18c0,0-20.319,5.116-27.688,25.426L369.34,78.54"/>
					</defs>
					<clipPath id="SVGID_18_">
						<use xlink:href="#SVGID_17_"  overflow="visible"/>
					</clipPath>
					<g clip-path="url(#SVGID_18_)">
						<g>
							<path d="M401.832,64.246c-0.078,0.139-0.143,0.287-0.176,0.448l-1.969,9.417c-0.183,0.88,0.383,1.742,1.26,1.928
								c0.881,0.183,1.742-0.382,1.926-1.262l1.971-9.417c0.033-0.161,0.031-0.321,0.019-0.479L401.832,64.246z"/>
						</g>
						<g>
							<path d="M407.012,67.449c-0.074,0.138-0.139,0.285-0.172,0.448l-1.967,9.416c-0.187,0.879,0.377,1.743,1.258,1.927
								c0.881,0.183,1.742-0.381,1.926-1.261l1.97-9.417c0.032-0.164,0.034-0.323,0.021-0.479L407.012,67.449z"/>
						</g>
						<g>
							<path d="M413.047,66.59c-0.078,0.139-0.139,0.287-0.174,0.449l-1.967,9.417c-0.187,0.878,0.381,1.743,1.258,1.926
								c0.879,0.184,1.744-0.382,1.926-1.26l1.969-9.417c0.035-0.162,0.035-0.322,0.021-0.48L413.047,66.59z"/>
						</g>
					</g>
				</g>
			</g>
			<g>
				<g>
					<g>
						<path fill="#FFFFFF" d="M389.936,82.645c0,0,2.511,1.215,4.89,4.708"/>
						<path d="M394.912,88.693c-0.459,0.03-0.922-0.176-1.199-0.584c-2.117-3.11-4.346-4.247-4.369-4.258
							c-0.662-0.33-0.936-1.133-0.608-1.796c0.325-0.664,1.123-0.938,1.786-0.619c0.115,0.057,2.863,1.415,5.414,5.161
							c0.416,0.613,0.259,1.449-0.354,1.867C395.375,88.604,395.143,88.678,394.912,88.693z"/>
					</g>
					<g>
						<path fill="#FFFFFF" d="M395.949,83.902c0,0-2.785,0.109-6.363,2.354"/>
						<path d="M389.674,87.598c-0.475,0.03-0.953-0.194-1.225-0.627c-0.396-0.628-0.205-1.458,0.424-1.852
							c3.84-2.41,6.887-2.555,7.025-2.56c0.739-0.028,1.364,0.549,1.395,1.291c0.027,0.73-0.531,1.348-1.256,1.394
							c-0.012,0-0.016-0.004-0.031,0.001c-0.131,0.009-2.588,0.193-5.705,2.149C390.105,87.518,389.889,87.583,389.674,87.598z"/>
					</g>
				</g>
				<g>
					<path d="M419.281,90.622c0.342-1.639-0.711-3.245-2.349-3.587c-1.639-0.343-3.245,0.708-3.588,2.347
						c-0.344,1.639,0.881,2.42,2.521,2.762C417.506,92.487,418.938,92.262,419.281,90.622z"/>
				</g>
			</g>
			<g>
				<g>
					<path d="M407.621,104.966c-1.146,0.074-2.328-0.178-3.441-0.773c-1.201-0.643-2.114-1.578-2.682-2.678
						c-0.961,0.78-2.174,1.271-3.533,1.378c-2.893,0.22-5.35-1.318-6.348-3.937c-0.262-0.694,0.086-1.471,0.779-1.733
						c0.698-0.266,1.469,0.085,1.731,0.778c0.672,1.763,2.271,2.3,3.566,2.217c0.02-0.001,0.039-0.002,0.057-0.004
						c1.301-0.104,2.826-0.878,3.219-2.745c0-0.001,0-0.002,0-0.003c0.152-0.727,0.865-1.191,1.59-1.04
						c0.728,0.152,1.191,0.863,1.039,1.59h0.002l0,0c-0.391,1.868,0.697,3.191,1.847,3.806c1.153,0.618,2.865,0.793,4.207-0.575
						c0.521-0.531,1.371-0.537,1.899-0.019c0.529,0.521,0.537,1.37,0.019,1.9C410.475,104.249,409.08,104.872,407.621,104.966z"/>
				</g>
				<g>
					<path d="M402.162,98.333c0.887,0.186,2.801-0.991,3.004-1.967c0.287-1.372-0.781-1.815-2.154-2.103
						c-1.371-0.287-2.526-0.309-2.813,1.063C399.992,96.303,401.273,98.146,402.162,98.333z"/>
				</g>
			</g>
			<g>
				<path fill="#FFFFFF" d="M370.338,96.549c0,0-4.295-0.359-7.709,2.392"/>
				<path d="M362.717,100.282c-0.42,0.026-0.848-0.145-1.133-0.498c-0.465-0.578-0.375-1.425,0.203-1.891
					c3.785-3.052,8.465-2.7,8.662-2.685c0.74,0.062,1.289,0.712,1.227,1.451c-0.062,0.737-0.713,1.285-1.444,1.228
					c-0.044-0.003-3.83-0.262-6.759,2.099C363.25,100.167,362.984,100.264,362.717,100.282z"/>
			</g>
			<g>
				<path fill="#FFFFFF" d="M371.266,98.808c0,0-4.278,0.497-7.084,3.869"/>
				<path d="M364.268,104.018c-0.329,0.021-0.67-0.079-0.944-0.308c-0.57-0.475-0.648-1.321-0.174-1.893
					c3.11-3.741,7.764-4.321,7.961-4.344c0.754-0.093,1.403,0.443,1.489,1.179c0.084,0.736-0.44,1.402-1.176,1.49
					c-0.078,0.01-3.812,0.512-6.209,3.395C364.969,103.831,364.623,103.995,364.268,104.018z"/>
			</g>
			<g>
				<path fill="#FFFFFF" d="M372.605,101.083c0,0-4.078,1.394-6.101,5.285"/>
				<path d="M366.592,107.709c-0.238,0.015-0.479-0.032-0.707-0.149c-0.658-0.343-0.914-1.153-0.569-1.812
					c2.243-4.318,6.668-5.872,6.856-5.938c0.699-0.24,1.465,0.134,1.705,0.837c0.238,0.7-0.133,1.463-0.834,1.705
					c-0.047,0.018-3.611,1.298-5.346,4.635C367.473,107.421,367.045,107.68,366.592,107.709z"/>
			</g>
			<g>
				<path fill="#FFFFFF" d="M432.037,109.448c0,0,4.078,1.392,6.104,5.278"/>
				<path d="M438.229,116.068c-0.516,0.033-1.024-0.233-1.278-0.721c-1.756-3.372-5.312-4.616-5.347-4.628
					c-0.702-0.24-1.077-1.004-0.838-1.706c0.238-0.702,1.002-1.078,1.705-0.838c0.188,0.064,4.613,1.615,6.861,5.93
					c0.344,0.658,0.088,1.47-0.57,1.812C438.592,116.008,438.41,116.057,438.229,116.068z"/>
			</g>
			<g>
				<path fill="#FFFFFF" d="M430.283,111.146c0,0,3.721,2.17,4.938,6.383"/>
				<path d="M435.309,118.869c-0.614,0.039-1.196-0.353-1.377-0.969c-1.057-3.652-4.293-5.575-4.325-5.595
					c-0.642-0.374-0.857-1.196-0.484-1.837c0.375-0.641,1.197-0.858,1.838-0.484c0.172,0.1,4.203,2.494,5.555,7.169
					c0.207,0.714-0.205,1.458-0.918,1.664C435.5,118.847,435.404,118.863,435.309,118.869z"/>
			</g>
			<g>
				<path fill="#FFFFFF" d="M428.143,112.693c0,0,3.179,2.913,3.474,7.287"/>
				<path d="M431.701,121.32c-0.738,0.049-1.377-0.512-1.428-1.25c-0.253-3.758-3.017-6.363-3.043-6.39
					c-0.544-0.503-0.576-1.353-0.074-1.896s1.346-0.582,1.893-0.081c0.146,0.134,3.578,3.331,3.906,8.187
					c0.051,0.74-0.51,1.381-1.25,1.432L431.701,121.32L431.701,121.32z"/>
			</g>
			<g>
				<path fill="#FFFFFF" d="M417.992,89.417c-0.096,0.469-0.56,0.77-1.025,0.671c-0.473-0.098-0.77-0.559-0.674-1.027
					c0.1-0.47,0.559-0.771,1.029-0.673C417.791,88.487,418.092,88.948,417.992,89.417z"/>
			</g>
			<g>
				<circle fill="#FFFFFF" cx="416.837" cy="89.438" r="0.378"/>
			</g>
			<g>
				<g>
					<path id="SVGID_3_" d="M369.443,80.385c-0.197,0.013-0.396-0.007-0.597-0.062c-0.901-0.251-1.459-1.155-1.276-2.073
						c0.021-0.105,0.051-0.206,0.088-0.303c1.813-4.983,4.533-9.506,8.086-13.439c0.662-0.735,1.795-0.792,2.531-0.13
						c0.733,0.663,0.791,1.796,0.129,2.53c-3.25,3.6-5.738,7.738-7.394,12.3C370.764,79.894,370.135,80.341,369.443,80.385z"/>
				</g>
				<g>
					<path id="SVGID_5_" d="M381.482,63.381c-0.554,0.036-1.113-0.185-1.494-0.642c-0.631-0.762-0.529-1.892,0.231-2.523
						c7.959-6.616,16.019-8.697,16.357-8.782c0.955-0.24,1.934,0.341,2.174,1.3c0.242,0.959-0.34,1.932-1.299,2.175
						c-0.09,0.022-7.646,2-14.941,8.062C382.209,63.223,381.848,63.357,381.482,63.381z"/>
				</g>
				<g>
					<path id="SVGID_6_" d="M412.307,117.779c-4.485,0.289-9.215-0.057-13.987-1.057c-20.939-4.376-34.267-19.462-30.998-35.09
						c0.078-0.377,0.137-0.75,0.192-1.118c0.125-0.806,0.256-1.641,0.572-2.459c0.271-0.692,1.047-1.036,1.738-0.768
						c0.69,0.268,1.035,1.046,0.768,1.737c-0.213,0.549-0.313,1.206-0.422,1.902c-0.063,0.413-0.131,0.832-0.219,1.254
						c-2.955,14.128,9.477,27.848,28.916,31.912c9.365,1.958,18.504,1.285,25.731-1.896c7.281-3.203,12.093-8.801,13.548-15.76
						c0.084-0.406,0.176-0.794,0.266-1.176c0.154-0.66,0.299-1.287,0.399-1.946c1.146-17.82-10.532-29.582-13.815-32.518
						c-3.445,3.13-6.16,6.255-8.078,9.299c-0.324,0.513-0.947,0.747-1.527,0.569c-2.227-0.676-4.604-1.28-7.069-1.794
						c-2.457-0.516-4.877-0.914-7.193-1.188c-0.602-0.071-1.082-0.535-1.172-1.132c-0.584-3.847-1.98-8.158-4.156-12.812
						c-0.313-0.674-0.024-1.473,0.648-1.786c0.67-0.315,1.471-0.024,1.785,0.647c2.1,4.491,3.514,8.703,4.211,12.54
						c2.088,0.274,4.243,0.645,6.426,1.102c2.188,0.456,4.313,0.981,6.332,1.565c2.178-3.238,5.162-6.531,8.885-9.801
						c0.484-0.425,1.199-0.448,1.709-0.054c0.697,0.54,17.006,13.43,15.713,35.317c0.004,0.085,0.002,0.173-0.012,0.263
						c-0.117,0.837-0.297,1.602-0.469,2.341c-0.084,0.361-0.17,0.729-0.25,1.116c-1.64,7.831-6.998,14.104-15.095,17.667
						C421.672,116.422,417.131,117.469,412.307,117.779z"/>
				</g>
				<g>
					<defs>
						<path id="SVGID_19_" d="M369.443,80.385c-0.197,0.013-0.396-0.007-0.597-0.062c-0.901-0.251-1.459-1.155-1.276-2.073
							c0.021-0.105,0.051-0.206,0.088-0.303c1.813-4.983,4.533-9.506,8.086-13.439c0.662-0.735,1.795-0.792,2.531-0.13
							c0.733,0.663,0.791,1.796,0.129,2.53c-3.25,3.6-5.738,7.738-7.394,12.3C370.764,79.894,370.135,80.341,369.443,80.385z"/>
					</defs>
					<clipPath id="SVGID_20_">
						<use xlink:href="#SVGID_19_"  overflow="visible"/>
					</clipPath>
				</g>
				<g>
					<defs>
						<path id="SVGID_21_" d="M369.443,80.385c-0.197,0.013-0.396-0.007-0.597-0.062c-0.901-0.251-1.459-1.155-1.276-2.073
							c0.021-0.105,0.051-0.206,0.088-0.303c1.813-4.983,4.533-9.506,8.086-13.439c0.662-0.735,1.795-0.792,2.531-0.13
							c0.733,0.663,0.791,1.796,0.129,2.53c-3.25,3.6-5.738,7.738-7.394,12.3C370.764,79.894,370.135,80.341,369.443,80.385z"/>
					</defs>
					<clipPath id="SVGID_22_">
						<use xlink:href="#SVGID_21_"  overflow="visible"/>
					</clipPath>
					<path clip-path="url(#SVGID_22_)" fill="none" d="M377.074,65.708"/>
				</g>
				<g>
					<defs>
						<path id="SVGID_23_" d="M369.443,80.385c-0.197,0.013-0.396-0.007-0.597-0.062c-0.901-0.251-1.459-1.155-1.276-2.073
							c0.021-0.105,0.051-0.206,0.088-0.303c1.813-4.983,4.533-9.506,8.086-13.439c0.662-0.735,1.795-0.792,2.531-0.13
							c0.733,0.663,0.791,1.796,0.129,2.53c-3.25,3.6-5.738,7.738-7.394,12.3C370.764,79.894,370.135,80.341,369.443,80.385z"/>
					</defs>
					<defs>
						<path id="SVGID_24_" d="M381.482,63.381c-0.554,0.036-1.113-0.185-1.494-0.642c-0.631-0.762-0.529-1.892,0.231-2.523
							c7.959-6.616,16.019-8.697,16.357-8.782c0.955-0.24,1.934,0.341,2.174,1.3c0.242,0.959-0.34,1.932-1.299,2.175
							c-0.09,0.022-7.646,2-14.941,8.062C382.209,63.223,381.848,63.357,381.482,63.381z"/>
					</defs>
					<clipPath id="SVGID_25_">
						<use xlink:href="#SVGID_23_"  overflow="visible"/>
					</clipPath>
					<clipPath id="SVGID_26_" clip-path="url(#SVGID_25_)">
						<use xlink:href="#SVGID_24_"  overflow="visible"/>
					</clipPath>
					<path clip-path="url(#SVGID_26_)" fill="none" d="M377.074,65.708"/>
				</g>
				<g>
					<defs>
						<path id="SVGID_27_" d="M369.443,80.385c-0.197,0.013-0.396-0.007-0.597-0.062c-0.901-0.251-1.459-1.155-1.276-2.073
							c0.021-0.105,0.051-0.206,0.088-0.303c1.813-4.983,4.533-9.506,8.086-13.439c0.662-0.735,1.795-0.792,2.531-0.13
							c0.733,0.663,0.791,1.796,0.129,2.53c-3.25,3.6-5.738,7.738-7.394,12.3C370.764,79.894,370.135,80.341,369.443,80.385z"/>
					</defs>
					<defs>
						<path id="SVGID_28_" d="M381.482,63.381c-0.554,0.036-1.113-0.185-1.494-0.642c-0.631-0.762-0.529-1.892,0.231-2.523
							c7.959-6.616,16.019-8.697,16.357-8.782c0.955-0.24,1.934,0.341,2.174,1.3c0.242,0.959-0.34,1.932-1.299,2.175
							c-0.09,0.022-7.646,2-14.941,8.062C382.209,63.223,381.848,63.357,381.482,63.381z"/>
					</defs>
					<defs>
						<path id="SVGID_29_" d="M412.307,117.779c-4.485,0.289-9.215-0.057-13.987-1.057c-20.939-4.376-34.267-19.462-30.998-35.09
							c0.078-0.377,0.137-0.75,0.192-1.118c0.125-0.806,0.256-1.641,0.572-2.459c0.271-0.692,1.047-1.036,1.738-0.768
							c0.69,0.268,1.035,1.046,0.768,1.737c-0.213,0.549-0.313,1.206-0.422,1.902c-0.063,0.413-0.131,0.832-0.219,1.254
							c-2.955,14.128,9.477,27.848,28.916,31.912c9.365,1.958,18.504,1.285,25.731-1.896c7.281-3.203,12.093-8.801,13.548-15.76
							c0.084-0.406,0.176-0.794,0.266-1.176c0.154-0.66,0.299-1.287,0.399-1.946c1.146-17.82-10.532-29.582-13.815-32.518
							c-3.445,3.13-6.16,6.255-8.078,9.299c-0.324,0.513-0.947,0.747-1.527,0.569c-2.227-0.676-4.604-1.28-7.069-1.794
							c-2.457-0.516-4.877-0.914-7.193-1.188c-0.602-0.071-1.082-0.535-1.172-1.132c-0.584-3.847-1.98-8.158-4.156-12.812
							c-0.313-0.674-0.024-1.473,0.648-1.786c0.67-0.315,1.471-0.024,1.785,0.647c2.1,4.491,3.514,8.703,4.211,12.54
							c2.088,0.274,4.243,0.645,6.426,1.102c2.188,0.456,4.313,0.981,6.332,1.565c2.178-3.238,5.162-6.531,8.885-9.801
							c0.484-0.425,1.199-0.448,1.709-0.054c0.697,0.54,17.006,13.43,15.713,35.317c0.004,0.085,0.002,0.173-0.012,0.263
							c-0.117,0.837-0.297,1.602-0.469,2.341c-0.084,0.361-0.17,0.729-0.25,1.116c-1.64,7.831-6.998,14.104-15.095,17.667
							C421.672,116.422,417.131,117.469,412.307,117.779z"/>
					</defs>
					<clipPath id="SVGID_30_">
						<use xlink:href="#SVGID_27_"  overflow="visible"/>
					</clipPath>
					<clipPath id="SVGID_31_" clip-path="url(#SVGID_30_)">
						<use xlink:href="#SVGID_28_"  overflow="visible"/>
					</clipPath>
					<clipPath id="SVGID_32_" clip-path="url(#SVGID_31_)">
						<use xlink:href="#SVGID_29_"  overflow="visible"/>
					</clipPath>
					<path clip-path="url(#SVGID_32_)" fill="none" d="M377.074,65.708"/>
					<g clip-path="url(#SVGID_32_)">
						<path d="M364.252,89.24c0.137,0.076,0.283,0.139,0.447,0.173l9.416,1.969c0.879,0.184,1.742-0.381,1.926-1.259
							c0.182-0.881-0.381-1.742-1.262-1.927l-9.414-1.969c-0.164-0.034-0.322-0.035-0.482-0.021L364.252,89.24z"/>
					</g>
				</g>
				<g>
					<defs>
						<path id="SVGID_33_" d="M369.443,80.385c-0.197,0.013-0.396-0.007-0.597-0.062c-0.901-0.251-1.459-1.155-1.276-2.073
							c0.021-0.105,0.051-0.206,0.088-0.303c1.813-4.983,4.533-9.506,8.086-13.439c0.662-0.735,1.795-0.792,2.531-0.13
							c0.733,0.663,0.791,1.796,0.129,2.53c-3.25,3.6-5.738,7.738-7.394,12.3C370.764,79.894,370.135,80.341,369.443,80.385z"/>
					</defs>
					<defs>
						<path id="SVGID_34_" d="M381.482,63.381c-0.554,0.036-1.113-0.185-1.494-0.642c-0.631-0.762-0.529-1.892,0.231-2.523
							c7.959-6.616,16.019-8.697,16.357-8.782c0.955-0.24,1.934,0.341,2.174,1.3c0.242,0.959-0.34,1.932-1.299,2.175
							c-0.09,0.022-7.646,2-14.941,8.062C382.209,63.223,381.848,63.357,381.482,63.381z"/>
					</defs>
					<defs>
						<path id="SVGID_35_" d="M412.307,117.779c-4.485,0.289-9.215-0.057-13.987-1.057c-20.939-4.376-34.267-19.462-30.998-35.09
							c0.078-0.377,0.137-0.75,0.192-1.118c0.125-0.806,0.256-1.641,0.572-2.459c0.271-0.692,1.047-1.036,1.738-0.768
							c0.69,0.268,1.035,1.046,0.768,1.737c-0.213,0.549-0.313,1.206-0.422,1.902c-0.063,0.413-0.131,0.832-0.219,1.254
							c-2.955,14.128,9.477,27.848,28.916,31.912c9.365,1.958,18.504,1.285,25.731-1.896c7.281-3.203,12.093-8.801,13.548-15.76
							c0.084-0.406,0.176-0.794,0.266-1.176c0.154-0.66,0.299-1.287,0.399-1.946c1.146-17.82-10.532-29.582-13.815-32.518
							c-3.445,3.13-6.16,6.255-8.078,9.299c-0.324,0.513-0.947,0.747-1.527,0.569c-2.227-0.676-4.604-1.28-7.069-1.794
							c-2.457-0.516-4.877-0.914-7.193-1.188c-0.602-0.071-1.082-0.535-1.172-1.132c-0.584-3.847-1.98-8.158-4.156-12.812
							c-0.313-0.674-0.024-1.473,0.648-1.786c0.67-0.315,1.471-0.024,1.785,0.647c2.1,4.491,3.514,8.703,4.211,12.54
							c2.088,0.274,4.243,0.645,6.426,1.102c2.188,0.456,4.313,0.981,6.332,1.565c2.178-3.238,5.162-6.531,8.885-9.801
							c0.484-0.425,1.199-0.448,1.709-0.054c0.697,0.54,17.006,13.43,15.713,35.317c0.004,0.085,0.002,0.173-0.012,0.263
							c-0.117,0.837-0.297,1.602-0.469,2.341c-0.084,0.361-0.17,0.729-0.25,1.116c-1.64,7.831-6.998,14.104-15.095,17.667
							C421.672,116.422,417.131,117.469,412.307,117.779z"/>
					</defs>
					<clipPath id="SVGID_36_">
						<use xlink:href="#SVGID_33_"  overflow="visible"/>
					</clipPath>
					<clipPath id="SVGID_37_" clip-path="url(#SVGID_36_)">
						<use xlink:href="#SVGID_34_"  overflow="visible"/>
					</clipPath>
					<clipPath id="SVGID_38_" clip-path="url(#SVGID_37_)">
						<use xlink:href="#SVGID_35_"  overflow="visible"/>
					</clipPath>
					<path clip-path="url(#SVGID_38_)" fill="none" d="M377.074,65.708"/>
					<g clip-path="url(#SVGID_38_)">
						<path d="M367.453,84.057c0.137,0.076,0.285,0.14,0.449,0.174l9.414,1.969c0.883,0.185,1.743-0.381,1.928-1.261
							c0.184-0.88-0.379-1.74-1.26-1.926l-9.416-1.969c-0.164-0.033-0.326-0.034-0.482-0.021L367.453,84.057z"/>
					</g>
				</g>
				<g>
					<defs>
						<path id="SVGID_39_" d="M369.443,80.385c-0.197,0.013-0.396-0.007-0.597-0.062c-0.901-0.251-1.459-1.155-1.276-2.073
							c0.021-0.105,0.051-0.206,0.088-0.303c1.813-4.983,4.533-9.506,8.086-13.439c0.662-0.735,1.795-0.792,2.531-0.13
							c0.733,0.663,0.791,1.796,0.129,2.53c-3.25,3.6-5.738,7.738-7.394,12.3C370.764,79.894,370.135,80.341,369.443,80.385z"/>
					</defs>
					<defs>
						<path id="SVGID_40_" d="M381.482,63.381c-0.554,0.036-1.113-0.185-1.494-0.642c-0.631-0.762-0.529-1.892,0.231-2.523
							c7.959-6.616,16.019-8.697,16.357-8.782c0.955-0.24,1.934,0.341,2.174,1.3c0.242,0.959-0.34,1.932-1.299,2.175
							c-0.09,0.022-7.646,2-14.941,8.062C382.209,63.223,381.848,63.357,381.482,63.381z"/>
					</defs>
					<defs>
						<path id="SVGID_41_" d="M412.307,117.779c-4.485,0.289-9.215-0.057-13.987-1.057c-20.939-4.376-34.267-19.462-30.998-35.09
							c0.078-0.377,0.137-0.75,0.192-1.118c0.125-0.806,0.256-1.641,0.572-2.459c0.271-0.692,1.047-1.036,1.738-0.768
							c0.69,0.268,1.035,1.046,0.768,1.737c-0.213,0.549-0.313,1.206-0.422,1.902c-0.063,0.413-0.131,0.832-0.219,1.254
							c-2.955,14.128,9.477,27.848,28.916,31.912c9.365,1.958,18.504,1.285,25.731-1.896c7.281-3.203,12.093-8.801,13.548-15.76
							c0.084-0.406,0.176-0.794,0.266-1.176c0.154-0.66,0.299-1.287,0.399-1.946c1.146-17.82-10.532-29.582-13.815-32.518
							c-3.445,3.13-6.16,6.255-8.078,9.299c-0.324,0.513-0.947,0.747-1.527,0.569c-2.227-0.676-4.604-1.28-7.069-1.794
							c-2.457-0.516-4.877-0.914-7.193-1.188c-0.602-0.071-1.082-0.535-1.172-1.132c-0.584-3.847-1.98-8.158-4.156-12.812
							c-0.313-0.674-0.024-1.473,0.648-1.786c0.67-0.315,1.471-0.024,1.785,0.647c2.1,4.491,3.514,8.703,4.211,12.54
							c2.088,0.274,4.243,0.645,6.426,1.102c2.188,0.456,4.313,0.981,6.332,1.565c2.178-3.238,5.162-6.531,8.885-9.801
							c0.484-0.425,1.199-0.448,1.709-0.054c0.697,0.54,17.006,13.43,15.713,35.317c0.004,0.085,0.002,0.173-0.012,0.263
							c-0.117,0.837-0.297,1.602-0.469,2.341c-0.084,0.361-0.17,0.729-0.25,1.116c-1.64,7.831-6.998,14.104-15.095,17.667
							C421.672,116.422,417.131,117.469,412.307,117.779z"/>
					</defs>
					<clipPath id="SVGID_42_">
						<use xlink:href="#SVGID_39_"  overflow="visible"/>
					</clipPath>
					<clipPath id="SVGID_43_" clip-path="url(#SVGID_42_)">
						<use xlink:href="#SVGID_40_"  overflow="visible"/>
					</clipPath>
					<clipPath id="SVGID_44_" clip-path="url(#SVGID_43_)">
						<use xlink:href="#SVGID_41_"  overflow="visible"/>
					</clipPath>
					<path clip-path="url(#SVGID_44_)" fill="none" d="M377.074,65.708"/>
					<g clip-path="url(#SVGID_44_)">
						<path d="M366.596,78.023c0.138,0.076,0.285,0.141,0.449,0.175l9.414,1.968c0.881,0.184,1.742-0.381,1.926-1.261
							c0.187-0.88-0.379-1.74-1.26-1.925l-9.416-1.968c-0.162-0.035-0.322-0.036-0.482-0.021L366.596,78.023z"/>
					</g>
				</g>
				<g>
					<defs>
						<path id="SVGID_45_" d="M369.443,80.385c-0.197,0.013-0.396-0.007-0.597-0.062c-0.901-0.251-1.459-1.155-1.276-2.073
							c0.021-0.105,0.051-0.206,0.088-0.303c1.813-4.983,4.533-9.506,8.086-13.439c0.662-0.735,1.795-0.792,2.531-0.13
							c0.733,0.663,0.791,1.796,0.129,2.53c-3.25,3.6-5.738,7.738-7.394,12.3C370.764,79.894,370.135,80.341,369.443,80.385z"/>
					</defs>
					<defs>
						<path id="SVGID_46_" d="M381.482,63.381c-0.554,0.036-1.113-0.185-1.494-0.642c-0.631-0.762-0.529-1.892,0.231-2.523
							c7.959-6.616,16.019-8.697,16.357-8.782c0.955-0.24,1.934,0.341,2.174,1.3c0.242,0.959-0.34,1.932-1.299,2.175
							c-0.09,0.022-7.646,2-14.941,8.062C382.209,63.223,381.848,63.357,381.482,63.381z"/>
					</defs>
					<defs>
						<path id="SVGID_47_" d="M412.307,117.779c-4.485,0.289-9.215-0.057-13.987-1.057c-20.939-4.376-34.267-19.462-30.998-35.09
							c0.078-0.377,0.137-0.75,0.192-1.118c0.125-0.806,0.256-1.641,0.572-2.459c0.271-0.692,1.047-1.036,1.738-0.768
							c0.69,0.268,1.035,1.046,0.768,1.737c-0.213,0.549-0.313,1.206-0.422,1.902c-0.063,0.413-0.131,0.832-0.219,1.254
							c-2.955,14.128,9.477,27.848,28.916,31.912c9.365,1.958,18.504,1.285,25.731-1.896c7.281-3.203,12.093-8.801,13.548-15.76
							c0.084-0.406,0.176-0.794,0.266-1.176c0.154-0.66,0.299-1.287,0.399-1.946c1.146-17.82-10.532-29.582-13.815-32.518
							c-3.445,3.13-6.16,6.255-8.078,9.299c-0.324,0.513-0.947,0.747-1.527,0.569c-2.227-0.676-4.604-1.28-7.069-1.794
							c-2.457-0.516-4.877-0.914-7.193-1.188c-0.602-0.071-1.082-0.535-1.172-1.132c-0.584-3.847-1.98-8.158-4.156-12.812
							c-0.313-0.674-0.024-1.473,0.648-1.786c0.67-0.315,1.471-0.024,1.785,0.647c2.1,4.491,3.514,8.703,4.211,12.54
							c2.088,0.274,4.243,0.645,6.426,1.102c2.188,0.456,4.313,0.981,6.332,1.565c2.178-3.238,5.162-6.531,8.885-9.801
							c0.484-0.425,1.199-0.448,1.709-0.054c0.697,0.54,17.006,13.43,15.713,35.317c0.004,0.085,0.002,0.173-0.012,0.263
							c-0.117,0.837-0.297,1.602-0.469,2.341c-0.084,0.361-0.17,0.729-0.25,1.116c-1.64,7.831-6.998,14.104-15.095,17.667
							C421.672,116.422,417.131,117.469,412.307,117.779z"/>
					</defs>
					<clipPath id="SVGID_48_">
						<use xlink:href="#SVGID_45_"  overflow="visible"/>
					</clipPath>
					<clipPath id="SVGID_49_" clip-path="url(#SVGID_48_)">
						<use xlink:href="#SVGID_46_"  overflow="visible"/>
					</clipPath>
					<clipPath id="SVGID_50_" clip-path="url(#SVGID_49_)">
						<use xlink:href="#SVGID_47_"  overflow="visible"/>
					</clipPath>
					<path clip-path="url(#SVGID_50_)" fill="none" d="M377.074,65.708"/>
					<g clip-path="url(#SVGID_50_)">
						<path d="M440.541,105.189c-0.156,0.016-0.314,0.015-0.48-0.02l-9.416-1.97c-0.879-0.185-1.444-1.047-1.26-1.926
							c0.187-0.88,1.047-1.443,1.924-1.26l9.42,1.969c0.162,0.035,0.312,0.099,0.447,0.175L440.541,105.189z"/>
					</g>
				</g>
				<g>
					<defs>
						<path id="SVGID_51_" d="M369.443,80.385c-0.197,0.013-0.396-0.007-0.597-0.062c-0.901-0.251-1.459-1.155-1.276-2.073
							c0.021-0.105,0.051-0.206,0.088-0.303c1.813-4.983,4.533-9.506,8.086-13.439c0.662-0.735,1.795-0.792,2.531-0.13
							c0.733,0.663,0.791,1.796,0.129,2.53c-3.25,3.6-5.738,7.738-7.394,12.3C370.764,79.894,370.135,80.341,369.443,80.385z"/>
					</defs>
					<defs>
						<path id="SVGID_52_" d="M381.482,63.381c-0.554,0.036-1.113-0.185-1.494-0.642c-0.631-0.762-0.529-1.892,0.231-2.523
							c7.959-6.616,16.019-8.697,16.357-8.782c0.955-0.24,1.934,0.341,2.174,1.3c0.242,0.959-0.34,1.932-1.299,2.175
							c-0.09,0.022-7.646,2-14.941,8.062C382.209,63.223,381.848,63.357,381.482,63.381z"/>
					</defs>
					<defs>
						<path id="SVGID_53_" d="M412.307,117.779c-4.485,0.289-9.215-0.057-13.987-1.057c-20.939-4.376-34.267-19.462-30.998-35.09
							c0.078-0.377,0.137-0.75,0.192-1.118c0.125-0.806,0.256-1.641,0.572-2.459c0.271-0.692,1.047-1.036,1.738-0.768
							c0.69,0.268,1.035,1.046,0.768,1.737c-0.213,0.549-0.313,1.206-0.422,1.902c-0.063,0.413-0.131,0.832-0.219,1.254
							c-2.955,14.128,9.477,27.848,28.916,31.912c9.365,1.958,18.504,1.285,25.731-1.896c7.281-3.203,12.093-8.801,13.548-15.76
							c0.084-0.406,0.176-0.794,0.266-1.176c0.154-0.66,0.299-1.287,0.399-1.946c1.146-17.82-10.532-29.582-13.815-32.518
							c-3.445,3.13-6.16,6.255-8.078,9.299c-0.324,0.513-0.947,0.747-1.527,0.569c-2.227-0.676-4.604-1.28-7.069-1.794
							c-2.457-0.516-4.877-0.914-7.193-1.188c-0.602-0.071-1.082-0.535-1.172-1.132c-0.584-3.847-1.98-8.158-4.156-12.812
							c-0.313-0.674-0.024-1.473,0.648-1.786c0.67-0.315,1.471-0.024,1.785,0.647c2.1,4.491,3.514,8.703,4.211,12.54
							c2.088,0.274,4.243,0.645,6.426,1.102c2.188,0.456,4.313,0.981,6.332,1.565c2.178-3.238,5.162-6.531,8.885-9.801
							c0.484-0.425,1.199-0.448,1.709-0.054c0.697,0.54,17.006,13.43,15.713,35.317c0.004,0.085,0.002,0.173-0.012,0.263
							c-0.117,0.837-0.297,1.602-0.469,2.341c-0.084,0.361-0.17,0.729-0.25,1.116c-1.64,7.831-6.998,14.104-15.095,17.667
							C421.672,116.422,417.131,117.469,412.307,117.779z"/>
					</defs>
					<clipPath id="SVGID_54_">
						<use xlink:href="#SVGID_51_"  overflow="visible"/>
					</clipPath>
					<clipPath id="SVGID_55_" clip-path="url(#SVGID_54_)">
						<use xlink:href="#SVGID_52_"  overflow="visible"/>
					</clipPath>
					<clipPath id="SVGID_56_" clip-path="url(#SVGID_55_)">
						<use xlink:href="#SVGID_53_"  overflow="visible"/>
					</clipPath>
					<path clip-path="url(#SVGID_56_)" fill="none" d="M377.074,65.708"/>
					<g clip-path="url(#SVGID_56_)">
						<path d="M439.684,99.156c-0.155,0.014-0.315,0.015-0.479-0.02l-9.416-1.968c-0.881-0.186-1.445-1.047-1.26-1.926
							c0.184-0.882,1.045-1.444,1.926-1.261l9.416,1.97c0.164,0.032,0.311,0.097,0.447,0.174L439.684,99.156z"/>
					</g>
				</g>
				<g>
					<defs>
						<path id="SVGID_57_" d="M369.443,80.385c-0.197,0.013-0.396-0.007-0.597-0.062c-0.901-0.251-1.459-1.155-1.276-2.073
							c0.021-0.105,0.051-0.206,0.088-0.303c1.813-4.983,4.533-9.506,8.086-13.439c0.662-0.735,1.795-0.792,2.531-0.13
							c0.733,0.663,0.791,1.796,0.129,2.53c-3.25,3.6-5.738,7.738-7.394,12.3C370.764,79.894,370.135,80.341,369.443,80.385z"/>
					</defs>
					<defs>
						<path id="SVGID_58_" d="M381.482,63.381c-0.554,0.036-1.113-0.185-1.494-0.642c-0.631-0.762-0.529-1.892,0.231-2.523
							c7.959-6.616,16.019-8.697,16.357-8.782c0.955-0.24,1.934,0.341,2.174,1.3c0.242,0.959-0.34,1.932-1.299,2.175
							c-0.09,0.022-7.646,2-14.941,8.062C382.209,63.223,381.848,63.357,381.482,63.381z"/>
					</defs>
					<defs>
						<path id="SVGID_59_" d="M412.307,117.779c-4.485,0.289-9.215-0.057-13.987-1.057c-20.939-4.376-34.267-19.462-30.998-35.09
							c0.078-0.377,0.137-0.75,0.192-1.118c0.125-0.806,0.256-1.641,0.572-2.459c0.271-0.692,1.047-1.036,1.738-0.768
							c0.69,0.268,1.035,1.046,0.768,1.737c-0.213,0.549-0.313,1.206-0.422,1.902c-0.063,0.413-0.131,0.832-0.219,1.254
							c-2.955,14.128,9.477,27.848,28.916,31.912c9.365,1.958,18.504,1.285,25.731-1.896c7.281-3.203,12.093-8.801,13.548-15.76
							c0.084-0.406,0.176-0.794,0.266-1.176c0.154-0.66,0.299-1.287,0.399-1.946c1.146-17.82-10.532-29.582-13.815-32.518
							c-3.445,3.13-6.16,6.255-8.078,9.299c-0.324,0.513-0.947,0.747-1.527,0.569c-2.227-0.676-4.604-1.28-7.069-1.794
							c-2.457-0.516-4.877-0.914-7.193-1.188c-0.602-0.071-1.082-0.535-1.172-1.132c-0.584-3.847-1.98-8.158-4.156-12.812
							c-0.313-0.674-0.024-1.473,0.648-1.786c0.67-0.315,1.471-0.024,1.785,0.647c2.1,4.491,3.514,8.703,4.211,12.54
							c2.088,0.274,4.243,0.645,6.426,1.102c2.188,0.456,4.313,0.981,6.332,1.565c2.178-3.238,5.162-6.531,8.885-9.801
							c0.484-0.425,1.199-0.448,1.709-0.054c0.697,0.54,17.006,13.43,15.713,35.317c0.004,0.085,0.002,0.173-0.012,0.263
							c-0.117,0.837-0.297,1.602-0.469,2.341c-0.084,0.361-0.17,0.729-0.25,1.116c-1.64,7.831-6.998,14.104-15.095,17.667
							C421.672,116.422,417.131,117.469,412.307,117.779z"/>
					</defs>
					<clipPath id="SVGID_60_">
						<use xlink:href="#SVGID_57_"  overflow="visible"/>
					</clipPath>
					<clipPath id="SVGID_61_" clip-path="url(#SVGID_60_)">
						<use xlink:href="#SVGID_58_"  overflow="visible"/>
					</clipPath>
					<clipPath id="SVGID_62_" clip-path="url(#SVGID_61_)">
						<use xlink:href="#SVGID_59_"  overflow="visible"/>
					</clipPath>
					<path clip-path="url(#SVGID_62_)" fill="none" d="M377.074,65.708"/>
					<g clip-path="url(#SVGID_62_)">
						<path d="M442.887,93.974c-0.155,0.014-0.315,0.014-0.479-0.021l-9.416-1.97c-0.879-0.184-1.445-1.047-1.261-1.926
							c0.183-0.88,1.048-1.442,1.927-1.259l9.416,1.969c0.164,0.033,0.311,0.096,0.446,0.172L442.887,93.974z"/>
					</g>
				</g>
				<g>
					<defs>
						<path id="SVGID_63_" d="M369.443,80.385c-0.197,0.013-0.396-0.007-0.597-0.062c-0.901-0.251-1.459-1.155-1.276-2.073
							c0.021-0.105,0.051-0.206,0.088-0.303c1.813-4.983,4.533-9.506,8.086-13.439c0.662-0.735,1.795-0.792,2.531-0.13
							c0.733,0.663,0.791,1.796,0.129,2.53c-3.25,3.6-5.738,7.738-7.394,12.3C370.764,79.894,370.135,80.341,369.443,80.385z"/>
					</defs>
					<defs>
						<path id="SVGID_64_" d="M381.482,63.381c-0.554,0.036-1.113-0.185-1.494-0.642c-0.631-0.762-0.529-1.892,0.231-2.523
							c7.959-6.616,16.019-8.697,16.357-8.782c0.955-0.24,1.934,0.341,2.174,1.3c0.242,0.959-0.34,1.932-1.299,2.175
							c-0.09,0.022-7.646,2-14.941,8.062C382.209,63.223,381.848,63.357,381.482,63.381z"/>
					</defs>
					<defs>
						<path id="SVGID_65_" d="M412.307,117.779c-4.485,0.289-9.215-0.057-13.987-1.057c-20.939-4.376-34.267-19.462-30.998-35.09
							c0.078-0.377,0.137-0.75,0.192-1.118c0.125-0.806,0.256-1.641,0.572-2.459c0.271-0.692,1.047-1.036,1.738-0.768
							c0.69,0.268,1.035,1.046,0.768,1.737c-0.213,0.549-0.313,1.206-0.422,1.902c-0.063,0.413-0.131,0.832-0.219,1.254
							c-2.955,14.128,9.477,27.848,28.916,31.912c9.365,1.958,18.504,1.285,25.731-1.896c7.281-3.203,12.093-8.801,13.548-15.76
							c0.084-0.406,0.176-0.794,0.266-1.176c0.154-0.66,0.299-1.287,0.399-1.946c1.146-17.82-10.532-29.582-13.815-32.518
							c-3.445,3.13-6.16,6.255-8.078,9.299c-0.324,0.513-0.947,0.747-1.527,0.569c-2.227-0.676-4.604-1.28-7.069-1.794
							c-2.457-0.516-4.877-0.914-7.193-1.188c-0.602-0.071-1.082-0.535-1.172-1.132c-0.584-3.847-1.98-8.158-4.156-12.812
							c-0.313-0.674-0.024-1.473,0.648-1.786c0.67-0.315,1.471-0.024,1.785,0.647c2.1,4.491,3.514,8.703,4.211,12.54
							c2.088,0.274,4.243,0.645,6.426,1.102c2.188,0.456,4.313,0.981,6.332,1.565c2.178-3.238,5.162-6.531,8.885-9.801
							c0.484-0.425,1.199-0.448,1.709-0.054c0.697,0.54,17.006,13.43,15.713,35.317c0.004,0.085,0.002,0.173-0.012,0.263
							c-0.117,0.837-0.297,1.602-0.469,2.341c-0.084,0.361-0.17,0.729-0.25,1.116c-1.64,7.831-6.998,14.104-15.095,17.667
							C421.672,116.422,417.131,117.469,412.307,117.779z"/>
					</defs>
					<clipPath id="SVGID_66_">
						<use xlink:href="#SVGID_63_"  overflow="visible"/>
					</clipPath>
					<clipPath id="SVGID_67_" clip-path="url(#SVGID_66_)">
						<use xlink:href="#SVGID_64_"  overflow="visible"/>
					</clipPath>
					<clipPath id="SVGID_68_" clip-path="url(#SVGID_67_)">
						<use xlink:href="#SVGID_65_"  overflow="visible"/>
					</clipPath>
					<path clip-path="url(#SVGID_68_)" fill="none" d="M377.074,65.708"/>
					<g clip-path="url(#SVGID_68_)">
						<g>
							<path d="M401.832,64.246c-0.078,0.139-0.143,0.287-0.176,0.448l-1.969,9.417c-0.183,0.88,0.383,1.742,1.26,1.928
								c0.881,0.183,1.742-0.382,1.926-1.262l1.971-9.417c0.033-0.161,0.031-0.321,0.019-0.479L401.832,64.246z"/>
						</g>
						<g>
							<path d="M407.012,67.449c-0.074,0.138-0.139,0.285-0.172,0.448l-1.967,9.416c-0.187,0.879,0.377,1.743,1.258,1.927
								c0.881,0.183,1.742-0.381,1.926-1.261l1.97-9.417c0.032-0.164,0.034-0.323,0.021-0.479L407.012,67.449z"/>
						</g>
						<g>
							<path d="M413.047,66.59c-0.078,0.139-0.139,0.287-0.174,0.449l-1.967,9.417c-0.187,0.878,0.381,1.743,1.258,1.926
								c0.879,0.184,1.744-0.382,1.926-1.26l1.969-9.417c0.035-0.162,0.035-0.322,0.021-0.48L413.047,66.59z"/>
						</g>
					</g>
				</g>
				<g>
					
						<path id="SVGID_4_" fill="none" stroke="#000000" stroke-width="5" stroke-linecap="round" stroke-linejoin="round" stroke-miterlimit="10" d="
						M377.074,65.708"/>
				</g>
			</g>
		</g>
	</g>
	<polygon fill="#BD67BF" points="131.26,102.455 157.398,57.177 183.539,102.455 	"/>
	<polygon fill="#BD67BF" points="183.539,102.455 174.703,87.148 159.396,102.455 	"/>
	<path fill="none" stroke="#000000" stroke-width="5" stroke-linejoin="round" stroke-miterlimit="10" d="M120.809,103.205
		c-2.666-6.053,0.078-13.121,6.131-15.788c6.053-2.667,13.121,0.078,15.789,6.129"/>
</g>
</svg>
