<?xml version="1.0" encoding="utf-8"?>
<!-- Generator: Adobe Illustrator 16.0.0, SVG Export Plug-In . SVG Version: 6.00 Build 0)  -->
<!DOCTYPE svg PUBLIC "-//W3C//DTD SVG 1.1//EN" "http://www.w3.org/Graphics/SVG/1.1/DTD/svg11.dtd">
<svg version="1.1" id="Layer_1" xmlns="http://www.w3.org/2000/svg" xmlns:xlink="http://www.w3.org/1999/xlink" x="0px" y="0px"
	 width="200px" height="200px" viewBox="0 0 200 200" enable-background="new 0 0 200 200" xml:space="preserve">
<g>
	<g>
		<path fill="#4BB7AA" d="M177.345,79.26l-67.983-49.897L40.62,82.099v103.947c0,2.061,1.745,3.729,3.901,3.729h25.677v-35.414
			c0-19.437,16.479-35.189,36.806-35.189c20.33,0,39.164,15.753,39.164,35.189v35.414h25.679c2.153,0,3.901-1.669,3.901-3.729
			V79.266L177.345,79.26z"/>
	</g>
	<g>
		<g>
			<path fill="#46AA9B" d="M99.998,108.608c-20.327,0-36.806,20.469-36.806,39.902v35.415h-24.93v2.12
				c0,2.061,1.748,3.729,3.904,3.729h28.032v-35.414c0-19.437,16.479-35.189,36.806-35.189c7.588,0,14.64,2.2,20.498,5.96
				C120.76,117.887,110.94,108.608,99.998,108.608z"/>
		</g>
		<g>
			<path fill="#46AA9B" d="M169.1,73.412h-0.357v106.783c0,2.06-1.748,3.731-3.901,3.731h-18.674v5.85h25.679
				c2.153,0,3.901-1.669,3.901-3.729V79.266l1.598-0.006L169.1,73.412z"/>
		</g>
	</g>
	<g>
		<path d="M164.841,183.349h-28.034c-2.295,0-4.155-1.86-4.155-4.155v-37.046c0-18.004-14.646-32.648-32.653-32.648
			c-18.004,0-32.648,14.645-32.648,32.648v37.046c0,2.295-1.86,4.155-4.158,4.155H35.161c-4.443,0-8.059-3.616-8.059-8.059V72.162
			c0-2.295,1.859-4.157,4.155-4.157c2.298,0,4.157,1.862,4.157,4.157v102.871h23.621v-32.886c0-22.586,18.377-40.96,40.963-40.96
			c22.592,0,40.964,18.374,40.964,40.96v32.886h23.625V72.162c0-2.295,1.859-4.157,4.157-4.157c2.293,0,4.155,1.862,4.155,4.157
			V175.29C172.899,179.732,169.283,183.349,164.841,183.349z"/>
	</g>
	<g>
		<path d="M14.995,89.219c-1.528,0-3.033-0.694-4.011-2.015c-1.644-2.21-1.182-5.336,1.032-6.975l85.011-63.08
			c2.214-1.64,5.334-1.18,6.978,1.034c1.642,2.212,1.18,5.337-1.031,6.978L17.962,88.239C17.069,88.903,16.026,89.219,14.995,89.219
			z"/>
	</g>
	<g>
		<path d="M185.007,89.219c-1.032,0-2.075-0.316-2.968-0.98l-36.727-27.251c-2.211-1.64-2.674-4.766-1.033-6.978
			c1.643-2.213,4.763-2.676,6.979-1.031l36.728,27.251c2.211,1.639,2.673,4.765,1.031,6.975
			C188.039,88.525,186.533,89.219,185.007,89.219z"/>
	</g>
	<g>
		<path d="M138.273,54.545c-1.031,0-2.074-0.319-2.967-0.982l-1.135-0.842c-0.022-0.015-0.042-0.032-0.063-0.046l-1.1-0.815
			c-2.211-1.642-2.674-4.766-1.032-6.979c1.643-2.215,4.762-2.674,6.978-1.032l1.101,0.817l-0.035,0.049
			c0.52,0.309,0.942,0.625,1.23,0.837c2.213,1.641,2.674,4.765,1.034,6.977C141.308,53.848,139.799,54.545,138.273,54.545z"/>
	</g>
	<g>
		<path d="M126.025,45.457c-1.034,0-2.075-0.318-2.97-0.983L97.03,25.16c-2.213-1.64-2.676-4.766-1.034-6.978
			c1.639-2.214,4.764-2.675,6.976-1.034l26.029,19.314c2.21,1.642,2.674,4.766,1.032,6.979
			C129.056,44.761,127.55,45.457,126.025,45.457z"/>
	</g>
	<g>
		<path d="M14.995,89.219c-1.528,0-3.033-0.694-4.011-2.015c-1.644-2.21-1.182-5.336,1.032-6.975l85.011-63.08
			c2.214-1.64,5.334-1.18,6.978,1.034c1.642,2.212,1.18,5.337-1.031,6.978L17.962,88.239C17.069,88.903,16.026,89.219,14.995,89.219
			z"/>
	</g>
</g>
</svg>
