<?xml version="1.0" encoding="utf-8"?>
<!-- Generator: Adobe Illustrator 16.0.0, SVG Export Plug-In . SVG Version: 6.00 Build 0)  -->
<!DOCTYPE svg PUBLIC "-//W3C//DTD SVG 1.1//EN" "http://www.w3.org/Graphics/SVG/1.1/DTD/svg11.dtd">
<svg version="1.1" id="Layer_1" xmlns="http://www.w3.org/2000/svg" xmlns:xlink="http://www.w3.org/1999/xlink" x="0px" y="0px"
	 width="200px" height="200px" viewBox="0 0 200 200" enable-background="new 0 0 200 200" xml:space="preserve">
<g>
	<g>
		<g>
			<g>
				<g>
					<g>
						<path fill="#FCF295" d="M180.869,108.023c-6.928-48.511-49.664-69.301-49.664-69.301
							c-7.969,10.622-12.773,19.708-15.598,27.28c-5.422-0.479-11.037-0.713-16.795-0.713c-5.756,0-11.374,0.234-16.797,0.71
							c-2.821-7.568-7.629-16.654-15.596-27.276c0,0-42.735,20.79-49.667,69.3v-0.131c-0.184,2.51,0,5.07,0,7.803
							c0,36.044,36.74,60.477,82.06,60.477s82.057-24.433,82.057-60.477c0-2.731,0.408-5.32,0-7.803V108.023L180.869,108.023z"/>
					</g>
				</g>
			</g>
		</g>
	</g>
	<g>
		<g>
			<g>
				<g>
					<g>
						<path fill="#BEC0C2" d="M189.518,110.188c-6.928-48.512-49.666-69.302-49.666-69.302
							c-7.969,10.622-12.771,19.708-15.597,27.28c-5.422-0.479-11.038-0.714-16.796-0.714c-5.757,0-11.373,0.235-16.793,0.711
							c-2.826-7.569-7.632-16.655-15.599-27.277c0,0-42.734,20.79-49.664,69.302v-0.133c-0.187,2.514,0,5.073,0,7.805
							c0,36.041,36.737,60.473,82.056,60.473c45.318,0,82.059-24.432,82.059-60.473c0-2.73,0.41-5.319,0-7.805V110.188z"/>
					</g>
				</g>
			</g>
		</g>
	</g>
	<g>
		<g>
			<g>
				<g>
					<g>
						<g>
							<path fill="#97999B" d="M76.982,52.641c1.198-0.105,2.415-0.195,3.636-0.276c-2.905-6.088-7-12.962-12.767-20.653
								c0,0-0.533,0.263-1.449,0.767C71.45,40.098,74.813,46.822,76.982,52.641z"/>
						</g>
					</g>
				</g>
			</g>
		</g>
		<g>
			<g>
				<g>
					<g>
						<g>
							<path fill="#97999B" d="M182.3,100.88v0.134c-3.774-26.442-18.184-44.631-30.519-55.723
								c10.496,11.238,20.926,27.474,24.054,49.374v-0.133c0.411,2.482,0,5.072,0,7.803c0,36.043-36.737,60.474-82.058,60.474
								c-25.074,0-47.509-7.49-62.561-20.274c14.6,16.626,40.052,26.623,69.027,26.623c45.317,0,82.057-24.431,82.057-60.474
								C182.3,105.953,182.711,103.365,182.3,100.88z"/>
						</g>
					</g>
				</g>
			</g>
		</g>
	</g>
	<g>
		<g>
			<defs>
				<path id="SVGID_1_" d="M19.033,103.664c-0.409,2.482,0,5.072,0,7.802c0,36.042,36.743,60.476,82.061,60.476
					c45.317,0,82.059-24.434,82.059-60.476c0-2.729,0.18-5.129,0-7.802v0.132c-6.932-48.511-49.666-69.301-49.666-69.301
					c-7.967,10.622-12.774,19.708-15.596,27.28c-5.423-0.48-11.041-0.716-16.797-0.716c-5.755,0-11.375,0.235-16.795,0.716
					c-2.825-7.572-7.632-16.659-15.598-27.28c0,0-42.736,20.791-49.668,69.301V103.664"/>
			</defs>
			<clipPath id="SVGID_2_">
				<use xlink:href="#SVGID_1_"  overflow="visible"/>
			</clipPath>
			<g clip-path="url(#SVGID_2_)">
				<g>
					<g>
						<g>
							<g>
								<path d="M12.7,129.782c0.344,0.106,0.698,0.179,1.076,0.179h21.82c2.04,0,3.691-1.654,3.691-3.689
									c0-2.041-1.651-3.691-3.691-3.691h-21.82c-0.377,0-0.731,0.072-1.076,0.18V129.782z"/>
							</g>
						</g>
					</g>
				</g>
			</g>
		</g>
		<g>
			<defs>
				<path id="SVGID_7_" d="M19.033,103.664c-0.409,2.482,0,5.072,0,7.802c0,36.042,36.743,60.476,82.061,60.476
					c45.317,0,82.059-24.434,82.059-60.476c0-2.729,0.18-5.129,0-7.802v0.132c-6.932-48.511-49.666-69.301-49.666-69.301
					c-7.967,10.622-12.774,19.708-15.596,27.28c-5.423-0.48-11.041-0.716-16.797-0.716c-5.755,0-11.375,0.235-16.795,0.716
					c-2.825-7.572-7.632-16.659-15.598-27.28c0,0-42.736,20.791-49.668,69.301V103.664"/>
			</defs>
			<clipPath id="SVGID_8_">
				<use xlink:href="#SVGID_7_"  overflow="visible"/>
			</clipPath>
			<g clip-path="url(#SVGID_8_)">
				<g>
					<g>
						<g>
							<g>
								<path d="M17.405,116.787c0.342,0.105,0.698,0.179,1.077,0.179H40.3c2.043,0,3.694-1.651,3.694-3.692
									c0-2.035-1.651-3.69-3.694-3.69H18.482c-0.379,0-0.735,0.074-1.077,0.183V116.787z"/>
							</g>
						</g>
					</g>
				</g>
			</g>
		</g>
		<g>
			<defs>
				<path id="SVGID_9_" d="M19.033,103.664c-0.409,2.482,0,5.072,0,7.802c0,36.042,36.743,60.476,82.061,60.476
					c45.317,0,82.059-24.434,82.059-60.476c0-2.729,0.18-5.129,0-7.802v0.132c-6.932-48.511-49.666-69.301-49.666-69.301
					c-7.967,10.622-12.774,19.708-15.596,27.28c-5.423-0.48-11.041-0.716-16.797-0.716c-5.755,0-11.375,0.235-16.795,0.716
					c-2.825-7.572-7.632-16.659-15.598-27.28c0,0-42.736,20.791-49.668,69.301V103.664"/>
			</defs>
			<clipPath id="SVGID_10_">
				<use xlink:href="#SVGID_9_"  overflow="visible"/>
			</clipPath>
			<g clip-path="url(#SVGID_10_)">
				<g>
					<g>
						<g>
							<g>
								<path d="M12.7,103.793c0.344,0.104,0.698,0.178,1.076,0.178h21.82c2.04,0,3.691-1.654,3.691-3.691
									c0-2.041-1.651-3.69-3.691-3.69h-21.82c-0.377,0-0.731,0.071-1.076,0.177V103.793z"/>
							</g>
						</g>
					</g>
				</g>
			</g>
		</g>
		<g>
			<defs>
				<path id="SVGID_11_" d="M19.033,103.664c-0.409,2.482,0,5.072,0,7.802c0,36.042,36.743,60.476,82.061,60.476
					c45.317,0,82.059-24.434,82.059-60.476c0-2.729,0.18-5.129,0-7.802v0.132c-6.932-48.511-49.666-69.301-49.666-69.301
					c-7.967,10.622-12.774,19.708-15.596,27.28c-5.423-0.48-11.041-0.716-16.797-0.716c-5.755,0-11.375,0.235-16.795,0.716
					c-2.825-7.572-7.632-16.659-15.598-27.28c0,0-42.736,20.791-49.668,69.301V103.664"/>
			</defs>
			<clipPath id="SVGID_12_">
				<use xlink:href="#SVGID_11_"  overflow="visible"/>
			</clipPath>
			<g clip-path="url(#SVGID_12_)">
				<g>
					<g>
						<g>
							<g>
								<path d="M189.484,129.782c-0.342,0.106-0.695,0.179-1.075,0.179h-21.82c-2.036,0-3.69-1.654-3.69-3.689
									c0-2.041,1.654-3.691,3.69-3.691h21.82c0.38,0,0.733,0.072,1.075,0.18V129.782z"/>
							</g>
						</g>
					</g>
				</g>
			</g>
		</g>
		<g>
			<defs>
				<path id="SVGID_13_" d="M19.033,103.664c-0.409,2.482,0,5.072,0,7.802c0,36.042,36.743,60.476,82.061,60.476
					c45.317,0,82.059-24.434,82.059-60.476c0-2.729,0.18-5.129,0-7.802v0.132c-6.932-48.511-49.666-69.301-49.666-69.301
					c-7.967,10.622-12.774,19.708-15.596,27.28c-5.423-0.48-11.041-0.716-16.797-0.716c-5.755,0-11.375,0.235-16.795,0.716
					c-2.825-7.572-7.632-16.659-15.598-27.28c0,0-42.736,20.791-49.668,69.301V103.664"/>
			</defs>
			<clipPath id="SVGID_14_">
				<use xlink:href="#SVGID_13_"  overflow="visible"/>
			</clipPath>
			<g clip-path="url(#SVGID_14_)">
				<g>
					<g>
						<g>
							<g>
								<path d="M184.777,116.787c-0.342,0.105-0.696,0.179-1.07,0.179h-21.823c-2.042,0-3.69-1.651-3.69-3.692
									c0-2.035,1.648-3.69,3.69-3.69h21.823c0.374,0,0.729,0.074,1.07,0.183V116.787z"/>
							</g>
						</g>
					</g>
				</g>
			</g>
		</g>
		<g>
			<defs>
				<path id="SVGID_15_" d="M19.033,103.664c-0.409,2.482,0,5.072,0,7.802c0,36.042,36.743,60.476,82.061,60.476
					c45.317,0,82.059-24.434,82.059-60.476c0-2.729,0.18-5.129,0-7.802v0.132c-6.932-48.511-49.666-69.301-49.666-69.301
					c-7.967,10.622-12.774,19.708-15.596,27.28c-5.423-0.48-11.041-0.716-16.797-0.716c-5.755,0-11.375,0.235-16.795,0.716
					c-2.825-7.572-7.632-16.659-15.598-27.28c0,0-42.736,20.791-49.668,69.301V103.664"/>
			</defs>
			<clipPath id="SVGID_16_">
				<use xlink:href="#SVGID_15_"  overflow="visible"/>
			</clipPath>
			<g clip-path="url(#SVGID_16_)">
				<g>
					<g>
						<g>
							<g>
								<path d="M189.484,103.793c-0.342,0.104-0.695,0.178-1.075,0.178h-21.82c-2.036,0-3.69-1.654-3.69-3.691
									c0-2.041,1.654-3.69,3.69-3.69h21.82c0.38,0,0.733,0.071,1.075,0.177V103.793z"/>
							</g>
						</g>
					</g>
				</g>
			</g>
		</g>
		<g>
			<defs>
				<path id="SVGID_17_" d="M19.033,103.664c-0.409,2.482,0,5.072,0,7.802c0,36.042,36.743,60.476,82.061,60.476
					c45.317,0,82.059-24.434,82.059-60.476c0-2.729,0.18-5.129,0-7.802v0.132c-6.932-48.511-49.666-69.301-49.666-69.301
					c-7.967,10.622-12.774,19.708-15.596,27.28c-5.423-0.48-11.041-0.716-16.797-0.716c-5.755,0-11.375,0.235-16.795,0.716
					c-2.825-7.572-7.632-16.659-15.598-27.28c0,0-42.736,20.791-49.668,69.301V103.664"/>
			</defs>
			<clipPath id="SVGID_18_">
				<use xlink:href="#SVGID_17_"  overflow="visible"/>
			</clipPath>
			<g clip-path="url(#SVGID_18_)">
				<g>
					<g>
						<g>
							<g>
								<g>
									<path d="M84.532,56.849c-0.104,0.344-0.176,0.7-0.176,1.077v21.82c0,2.038,1.654,3.692,3.691,3.692
										c2.04,0,3.693-1.655,3.693-3.692v-21.82c0-0.376-0.077-0.732-0.182-1.077H84.532z"/>
								</g>
							</g>
						</g>
					</g>
				</g>
				<g>
					<g>
						<g>
							<g>
								<g>
									<path d="M97.527,61.556c-0.101,0.341-0.175,0.698-0.175,1.076v21.82c0,2.039,1.65,3.692,3.687,3.692
										c2.042,0,3.693-1.654,3.693-3.692v-21.82c0-0.378-0.071-0.735-0.176-1.076H97.527z"/>
								</g>
							</g>
						</g>
					</g>
				</g>
				<g>
					<g>
						<g>
							<g>
								<g>
									<path d="M110.523,56.849c-0.106,0.344-0.176,0.7-0.176,1.077v21.82c0,2.038,1.653,3.692,3.688,3.692
										c2.041,0,3.694-1.655,3.694-3.692v-21.82c0-0.376-0.076-0.732-0.182-1.077H110.523z"/>
								</g>
							</g>
						</g>
					</g>
				</g>
			</g>
		</g>
	</g>
	<g>
		<g>
			<g>
				<g>
					<g>
						<g>
							<g>
								<path fill="#FFFFFF" d="M66.666,103.219c0,0,6.137,1.532,13.04,8.184"/>
							</g>
						</g>
					</g>
				</g>
				<g>
					<g>
						<g>
							<g>
								<path d="M79.706,113.911c-0.627,0-1.254-0.233-1.742-0.702c-6.266-6.036-11.862-7.544-11.918-7.559
									c-1.337-0.35-2.147-1.713-1.806-3.053c0.342-1.338,1.698-2.145,3.036-1.815c0.277,0.067,6.87,1.776,14.173,8.811
									c0.998,0.962,1.029,2.552,0.065,3.55C81.021,113.654,80.363,113.911,79.706,113.911z"/>
							</g>
						</g>
					</g>
				</g>
			</g>
			<g>
				<g>
					<g>
						<g>
							<g>
								<path fill="#FFFFFF" d="M80.603,103.219c0,0-6.136,1.532-13.038,8.184"/>
							</g>
						</g>
					</g>
				</g>
				<g>
					<g>
						<g>
							<g>
								<path d="M67.565,113.911c-0.659,0-1.315-0.257-1.808-0.769c-0.962-0.998-0.933-2.588,0.065-3.55
									c7.301-7.034,13.895-8.743,14.172-8.811c1.348-0.335,2.708,0.481,3.045,1.827c0.335,1.341-0.478,2.701-1.817,3.043
									c-0.104,0.024-5.678,1.547-11.915,7.557C68.82,113.678,68.191,113.911,67.565,113.911z"/>
							</g>
						</g>
					</g>
				</g>
			</g>
		</g>
		<g>
			<g>
				<g>
					<g>
						<g>
							<path d="M135.52,107.309c0-3.795-3.078-6.875-6.871-6.875c-3.801,0-6.879,3.08-6.879,6.875c0,3.799,3.078,4.967,6.879,4.967
								C132.441,112.273,135.52,111.107,135.52,107.309z"/>
						</g>
					</g>
				</g>
			</g>
		</g>
	</g>
	<g>
		<g>
			<g>
				<g>
					<g>
						<g>
							<path d="M112.555,144.532c-1.349,0-2.73-0.196-4.113-0.601c-3.096-0.91-5.627-2.705-7.348-5.068
								c-1.724,2.365-4.255,4.16-7.356,5.068c-6.007,1.764-12.021-0.425-15.314-5.568c-0.749-1.168-0.408-2.721,0.76-3.467
								c1.169-0.75,2.72-0.407,3.469,0.76c2.505,3.908,6.777,4.309,9.674,3.455c3.023-0.887,6.255-3.479,6.256-8.101
								c0-0.003,0-0.005,0-0.01c0-1.387,1.125-2.508,2.513-2.508l0,0c1.385,0,2.51,1.121,2.51,2.51c0,0,0,0,0,0.003l0,0l0,0
								c0,0.001,0,0.004,0,0.006c0.002,4.619,3.231,7.213,6.252,8.1c2.897,0.852,7.174,0.455,9.681-3.456
								c0.748-1.169,2.302-1.509,3.469-0.759c1.166,0.748,1.507,2.302,0.759,3.469C121.223,142.325,117.072,144.532,112.555,144.532
								z"/>
						</g>
					</g>
				</g>
			</g>
		</g>
		<g>
			<g>
				<g>
					<g>
						<g>
							<path d="M101.094,132.374c2.059,0,5.756-3.498,5.756-5.759c0-3.18-2.578-3.67-5.756-3.67c-3.18,0-5.759,0.49-5.759,3.67
								C95.334,128.876,99.034,132.374,101.094,132.374z"/>
						</g>
					</g>
				</g>
			</g>
		</g>
	</g>
	<g>
		<g>
			<g>
				<g>
					<g>
						<path fill="#FFFFFF" d="M29.606,143.186c0,0-9.701,1.197-16.002,8.889"/>
					</g>
				</g>
			</g>
		</g>
		<g>
			<g>
				<g>
					<g>
						<path d="M13.603,154.585c-0.561,0-1.123-0.188-1.59-0.569c-1.073-0.88-1.23-2.461-0.351-3.531
							c6.859-8.373,17.199-9.734,17.637-9.789c1.379-0.17,2.63,0.808,2.799,2.184c0.169,1.375-0.806,2.629-2.18,2.801
							c-0.17,0.021-8.843,1.238-14.372,7.985C15.05,154.271,14.329,154.585,13.603,154.585z"/>
					</g>
				</g>
			</g>
		</g>
	</g>
	<g>
		<g>
			<g>
				<g>
					<g>
						<path fill="#FFFFFF" d="M32.714,147.77c0,0-9.271,3.09-13.93,11.877"/>
					</g>
				</g>
			</g>
		</g>
		<g>
			<g>
				<g>
					<g>
						<path d="M18.782,162.158c-0.396,0-0.798-0.094-1.174-0.293c-1.225-0.648-1.691-2.17-1.042-3.395
							c5.072-9.566,14.938-12.945,15.355-13.084c1.318-0.439,2.738,0.274,3.175,1.586c0.438,1.315-0.269,2.734-1.582,3.176l0,0
							c-0.083,0.028-8.404,2.928-12.512,10.674C20.552,161.675,19.682,162.158,18.782,162.158z"/>
					</g>
				</g>
			</g>
		</g>
	</g>
	<g>
		<g>
			<g>
				<g>
					<g>
						<path fill="#FFFFFF" d="M36.75,152.199c0,0-8.406,4.988-11.093,14.564"/>
					</g>
				</g>
			</g>
		</g>
		<g>
			<g>
				<g>
					<g>
						<path d="M25.658,169.275c-0.225,0-0.452-0.029-0.679-0.094c-1.336-0.375-2.114-1.76-1.74-3.097
							c2.925-10.425,11.851-15.821,12.229-16.046c1.195-0.711,2.733-0.314,3.441,0.879c0.706,1.188,0.315,2.727-0.872,3.438
							c-0.104,0.062-7.599,4.66-9.963,13.086C27.763,168.55,26.755,169.275,25.658,169.275z"/>
					</g>
				</g>
			</g>
		</g>
	</g>
	<g>
		<g>
			<g>
				<g>
					<g>
						<path fill="#FFFFFF" d="M172.58,143.186c0,0,9.701,1.197,16.001,8.889"/>
					</g>
				</g>
			</g>
		</g>
		<g>
			<g>
				<g>
					<g>
						<path d="M188.583,154.585c-0.728,0-1.447-0.313-1.942-0.921c-5.6-6.833-14.281-7.977-14.369-7.986
							c-1.375-0.169-2.353-1.423-2.183-2.8c0.17-1.376,1.42-2.362,2.798-2.185c0.437,0.056,10.779,1.416,17.639,9.791
							c0.879,1.07,0.722,2.651-0.354,3.529C189.706,154.396,189.141,154.585,188.583,154.585z"/>
					</g>
				</g>
			</g>
		</g>
	</g>
	<g>
		<g>
			<g>
				<g>
					<g>
						<path fill="#FFFFFF" d="M169.473,147.77c0,0,9.272,3.09,13.93,11.877"/>
					</g>
				</g>
			</g>
		</g>
		<g>
			<g>
				<g>
					<g>
						<path d="M183.404,162.158c-0.899,0-1.771-0.483-2.221-1.336c-4.106-7.746-12.429-10.646-12.515-10.674
							c-1.308-0.444-2.017-1.865-1.573-3.18c0.44-1.312,1.859-2.02,3.172-1.582c0.414,0.139,10.281,3.518,15.352,13.084
							c0.65,1.225,0.186,2.745-1.04,3.395C184.203,162.064,183.803,162.158,183.404,162.158z"/>
					</g>
				</g>
			</g>
		</g>
	</g>
	<g>
		<g>
			<g>
				<g>
					<g>
						<path fill="#FFFFFF" d="M165.438,152.199c0,0,8.404,4.988,11.094,14.564"/>
					</g>
				</g>
			</g>
		</g>
		<g>
			<g>
				<g>
					<g>
						<path d="M176.529,169.275c-1.098,0-2.105-0.727-2.416-1.834c-2.391-8.51-9.881-13.039-9.957-13.084
							c-1.191-0.707-1.588-2.25-0.877-3.438c0.707-1.196,2.25-1.588,3.438-0.879c0.381,0.224,9.305,5.621,12.231,16.046
							c0.372,1.337-0.405,2.721-1.74,3.096C176.982,169.246,176.756,169.275,176.529,169.275z"/>
					</g>
				</g>
			</g>
		</g>
	</g>
	<g>
		<g>
			<g>
				<g>
					<g>
						<path fill="#FFFFFF" d="M132.102,105.23c0,1.088-0.881,1.97-1.967,1.97c-1.091,0-1.973-0.882-1.973-1.97
							s0.882-1.971,1.973-1.971C131.221,103.261,132.102,104.145,132.102,105.23z"/>
					</g>
				</g>
			</g>
		</g>
	</g>
	<g>
		<g>
			<g>
				<g>
					<g>
						<path fill="#FFFFFF" d="M130.406,105.812c0,0.477-0.387,0.861-0.862,0.861c-0.471,0-0.86-0.386-0.86-0.861
							c0-0.474,0.391-0.858,0.86-0.858C130.021,104.954,130.406,105.34,130.406,105.812z"/>
					</g>
				</g>
			</g>
		</g>
	</g>
	<g>
		<g>
			<path id="SVGID_3_" d="M19.035,107.145c-0.079,0-0.159-0.004-0.24-0.008c-1.752-0.125-3.109-1.582-3.109-3.341
				c0-0.187,0.016-0.369,0.044-0.549c1.7-11.818,5.612-23.04,11.627-33.351c0.932-1.597,2.982-2.137,4.579-1.204
				c1.597,0.931,2.137,2.981,1.205,4.578c-5.591,9.583-9.222,20.013-10.793,31C22.11,105.932,20.687,107.145,19.035,107.145z"/>
		</g>
		<g>
			<path id="SVGID_5_" d="M37.865,63.806c-0.729,0-1.463-0.238-2.08-0.727c-1.447-1.149-1.689-3.256-0.539-4.704
				C49.75,40.12,66.529,31.829,67.236,31.484c1.664-0.808,3.667-0.117,4.475,1.546c0.809,1.662,0.118,3.665-1.544,4.474
				c-0.257,0.127-16.208,8.082-29.678,25.036C39.827,63.373,38.852,63.806,37.865,63.806z"/>
		</g>
		<g>
			<path id="SVGID_6_" d="M101.094,175.29c-23.022,0-44.32-6.16-59.972-17.347c-16.403-11.725-25.437-28.229-25.437-46.479
				c0-0.865-0.045-1.718-0.088-2.555c-0.097-1.865-0.196-3.792,0.132-5.791c0.3-1.825,2.02-3.054,3.847-2.76
				c1.825,0.301,3.061,2.024,2.76,3.849c-0.211,1.285-0.135,2.776-0.053,4.358c0.049,0.949,0.098,1.914,0.098,2.897
				c0,32.57,33.838,57.13,78.712,57.13c44.872,0,78.712-24.56,78.712-57.13c0-0.95,0.021-1.862,0.041-2.76
				c0.036-1.529,0.067-2.979-0.015-4.474c-5.659-39.501-36.455-60.169-45.39-65.392c-6.096,8.45-10.604,16.547-13.418,24.101
				c-0.523,1.412-1.916,2.307-3.431,2.167c-10.512-0.932-22.491-0.932-33,0c-1.497,0.136-2.905-0.752-3.433-2.164
				c-3.08-8.258-8.174-17.154-15.14-26.442c-1.109-1.479-0.809-3.578,0.67-4.687c1.479-1.108,3.577-0.809,4.687,0.67
				c6.699,8.932,11.78,17.583,15.128,25.75c9.391-0.696,19.776-0.696,29.173,0c3.344-8.162,8.424-16.812,15.129-25.75
				c0.961-1.284,2.696-1.704,4.143-1.002c1.805,0.878,44.135,22,51.445,71.347c0.051,0.196,0.084,0.399,0.097,0.61
				c0.128,1.918,0.088,3.695,0.046,5.418c-0.02,0.847-0.038,1.709-0.038,2.605c0,18.248-9.034,34.754-25.437,46.479
				C145.412,169.13,124.113,175.29,101.094,175.29z"/>
		</g>
		<g>
			<defs>
				<path id="SVGID_19_" d="M19.035,107.145c-0.079,0-0.159-0.004-0.24-0.008c-1.752-0.125-3.109-1.582-3.109-3.341
					c0-0.187,0.016-0.369,0.044-0.549c1.7-11.818,5.612-23.04,11.627-33.351c0.932-1.597,2.982-2.137,4.579-1.204
					c1.597,0.931,2.137,2.981,1.205,4.578c-5.591,9.583-9.222,20.013-10.793,31C22.11,105.932,20.687,107.145,19.035,107.145z"/>
			</defs>
			<clipPath id="SVGID_20_">
				<use xlink:href="#SVGID_19_"  overflow="visible"/>
			</clipPath>
		</g>
		<g>
			<defs>
				<path id="SVGID_21_" d="M19.035,107.145c-0.079,0-0.159-0.004-0.24-0.008c-1.752-0.125-3.109-1.582-3.109-3.341
					c0-0.187,0.016-0.369,0.044-0.549c1.7-11.818,5.612-23.04,11.627-33.351c0.932-1.597,2.982-2.137,4.579-1.204
					c1.597,0.931,2.137,2.981,1.205,4.578c-5.591,9.583-9.222,20.013-10.793,31C22.11,105.932,20.687,107.145,19.035,107.145z"/>
			</defs>
			<clipPath id="SVGID_22_">
				<use xlink:href="#SVGID_21_"  overflow="visible"/>
			</clipPath>
			<path clip-path="url(#SVGID_22_)" fill="none" d="M30.248,71.583"/>
		</g>
		<g>
			<defs>
				<path id="SVGID_23_" d="M19.035,107.145c-0.079,0-0.159-0.004-0.24-0.008c-1.752-0.125-3.109-1.582-3.109-3.341
					c0-0.187,0.016-0.369,0.044-0.549c1.7-11.818,5.612-23.04,11.627-33.351c0.932-1.597,2.982-2.137,4.579-1.204
					c1.597,0.931,2.137,2.981,1.205,4.578c-5.591,9.583-9.222,20.013-10.793,31C22.11,105.932,20.687,107.145,19.035,107.145z"/>
			</defs>
			<defs>
				<path id="SVGID_24_" d="M37.865,63.806c-0.729,0-1.463-0.238-2.08-0.727c-1.447-1.149-1.689-3.256-0.539-4.704
					C49.75,40.12,66.529,31.829,67.236,31.484c1.664-0.808,3.667-0.117,4.475,1.546c0.809,1.662,0.118,3.665-1.544,4.474
					c-0.257,0.127-16.208,8.082-29.678,25.036C39.827,63.373,38.852,63.806,37.865,63.806z"/>
			</defs>
			<clipPath id="SVGID_25_">
				<use xlink:href="#SVGID_23_"  overflow="visible"/>
			</clipPath>
			<clipPath id="SVGID_26_" clip-path="url(#SVGID_25_)">
				<use xlink:href="#SVGID_24_"  overflow="visible"/>
			</clipPath>
			<path clip-path="url(#SVGID_26_)" fill="none" d="M30.248,71.583"/>
		</g>
		<g>
			<defs>
				<path id="SVGID_27_" d="M19.035,107.145c-0.079,0-0.159-0.004-0.24-0.008c-1.752-0.125-3.109-1.582-3.109-3.341
					c0-0.187,0.016-0.369,0.044-0.549c1.7-11.818,5.612-23.04,11.627-33.351c0.932-1.597,2.982-2.137,4.579-1.204
					c1.597,0.931,2.137,2.981,1.205,4.578c-5.591,9.583-9.222,20.013-10.793,31C22.11,105.932,20.687,107.145,19.035,107.145z"/>
			</defs>
			<defs>
				<path id="SVGID_28_" d="M37.865,63.806c-0.729,0-1.463-0.238-2.08-0.727c-1.447-1.149-1.689-3.256-0.539-4.704
					C49.75,40.12,66.529,31.829,67.236,31.484c1.664-0.808,3.667-0.117,4.475,1.546c0.809,1.662,0.118,3.665-1.544,4.474
					c-0.257,0.127-16.208,8.082-29.678,25.036C39.827,63.373,38.852,63.806,37.865,63.806z"/>
			</defs>
			<defs>
				<path id="SVGID_29_" d="M101.094,175.29c-23.022,0-44.32-6.16-59.972-17.347c-16.403-11.725-25.437-28.229-25.437-46.479
					c0-0.865-0.045-1.718-0.088-2.555c-0.097-1.865-0.196-3.792,0.132-5.791c0.3-1.825,2.02-3.054,3.847-2.76
					c1.825,0.301,3.061,2.024,2.76,3.849c-0.211,1.285-0.135,2.776-0.053,4.358c0.049,0.949,0.098,1.914,0.098,2.897
					c0,32.57,33.838,57.13,78.712,57.13c44.872,0,78.712-24.56,78.712-57.13c0-0.95,0.021-1.862,0.041-2.76
					c0.036-1.529,0.067-2.979-0.015-4.474c-5.659-39.501-36.455-60.169-45.39-65.392c-6.096,8.45-10.604,16.547-13.418,24.101
					c-0.523,1.412-1.916,2.307-3.431,2.167c-10.512-0.932-22.491-0.932-33,0c-1.497,0.136-2.905-0.752-3.433-2.164
					c-3.08-8.258-8.174-17.154-15.14-26.442c-1.109-1.479-0.809-3.578,0.67-4.687c1.479-1.108,3.577-0.809,4.687,0.67
					c6.699,8.932,11.78,17.583,15.128,25.75c9.391-0.696,19.776-0.696,29.173,0c3.344-8.162,8.424-16.812,15.129-25.75
					c0.961-1.284,2.696-1.704,4.143-1.002c1.805,0.878,44.135,22,51.445,71.347c0.051,0.196,0.084,0.399,0.097,0.61
					c0.128,1.918,0.088,3.695,0.046,5.418c-0.02,0.847-0.038,1.709-0.038,2.605c0,18.248-9.034,34.754-25.437,46.479
					C145.412,169.13,124.113,175.29,101.094,175.29z"/>
			</defs>
			<clipPath id="SVGID_30_">
				<use xlink:href="#SVGID_27_"  overflow="visible"/>
			</clipPath>
			<clipPath id="SVGID_31_" clip-path="url(#SVGID_30_)">
				<use xlink:href="#SVGID_28_"  overflow="visible"/>
			</clipPath>
			<clipPath id="SVGID_32_" clip-path="url(#SVGID_31_)">
				<use xlink:href="#SVGID_29_"  overflow="visible"/>
			</clipPath>
			<path clip-path="url(#SVGID_32_)" fill="none" d="M30.248,71.583"/>
			<g clip-path="url(#SVGID_32_)">
				<g>
					<g>
						<g>
							<g>
								<path d="M12.7,129.782c0.344,0.106,0.698,0.179,1.076,0.179h21.82c2.04,0,3.691-1.654,3.691-3.689
									c0-2.041-1.651-3.691-3.691-3.691h-21.82c-0.377,0-0.731,0.072-1.076,0.18V129.782z"/>
							</g>
						</g>
					</g>
				</g>
			</g>
		</g>
		<g>
			<defs>
				<path id="SVGID_33_" d="M19.035,107.145c-0.079,0-0.159-0.004-0.24-0.008c-1.752-0.125-3.109-1.582-3.109-3.341
					c0-0.187,0.016-0.369,0.044-0.549c1.7-11.818,5.612-23.04,11.627-33.351c0.932-1.597,2.982-2.137,4.579-1.204
					c1.597,0.931,2.137,2.981,1.205,4.578c-5.591,9.583-9.222,20.013-10.793,31C22.11,105.932,20.687,107.145,19.035,107.145z"/>
			</defs>
			<defs>
				<path id="SVGID_34_" d="M37.865,63.806c-0.729,0-1.463-0.238-2.08-0.727c-1.447-1.149-1.689-3.256-0.539-4.704
					C49.75,40.12,66.529,31.829,67.236,31.484c1.664-0.808,3.667-0.117,4.475,1.546c0.809,1.662,0.118,3.665-1.544,4.474
					c-0.257,0.127-16.208,8.082-29.678,25.036C39.827,63.373,38.852,63.806,37.865,63.806z"/>
			</defs>
			<defs>
				<path id="SVGID_35_" d="M101.094,175.29c-23.022,0-44.32-6.16-59.972-17.347c-16.403-11.725-25.437-28.229-25.437-46.479
					c0-0.865-0.045-1.718-0.088-2.555c-0.097-1.865-0.196-3.792,0.132-5.791c0.3-1.825,2.02-3.054,3.847-2.76
					c1.825,0.301,3.061,2.024,2.76,3.849c-0.211,1.285-0.135,2.776-0.053,4.358c0.049,0.949,0.098,1.914,0.098,2.897
					c0,32.57,33.838,57.13,78.712,57.13c44.872,0,78.712-24.56,78.712-57.13c0-0.95,0.021-1.862,0.041-2.76
					c0.036-1.529,0.067-2.979-0.015-4.474c-5.659-39.501-36.455-60.169-45.39-65.392c-6.096,8.45-10.604,16.547-13.418,24.101
					c-0.523,1.412-1.916,2.307-3.431,2.167c-10.512-0.932-22.491-0.932-33,0c-1.497,0.136-2.905-0.752-3.433-2.164
					c-3.08-8.258-8.174-17.154-15.14-26.442c-1.109-1.479-0.809-3.578,0.67-4.687c1.479-1.108,3.577-0.809,4.687,0.67
					c6.699,8.932,11.78,17.583,15.128,25.75c9.391-0.696,19.776-0.696,29.173,0c3.344-8.162,8.424-16.812,15.129-25.75
					c0.961-1.284,2.696-1.704,4.143-1.002c1.805,0.878,44.135,22,51.445,71.347c0.051,0.196,0.084,0.399,0.097,0.61
					c0.128,1.918,0.088,3.695,0.046,5.418c-0.02,0.847-0.038,1.709-0.038,2.605c0,18.248-9.034,34.754-25.437,46.479
					C145.412,169.13,124.113,175.29,101.094,175.29z"/>
			</defs>
			<clipPath id="SVGID_36_">
				<use xlink:href="#SVGID_33_"  overflow="visible"/>
			</clipPath>
			<clipPath id="SVGID_37_" clip-path="url(#SVGID_36_)">
				<use xlink:href="#SVGID_34_"  overflow="visible"/>
			</clipPath>
			<clipPath id="SVGID_38_" clip-path="url(#SVGID_37_)">
				<use xlink:href="#SVGID_35_"  overflow="visible"/>
			</clipPath>
			<path clip-path="url(#SVGID_38_)" fill="none" d="M30.248,71.583"/>
			<g clip-path="url(#SVGID_38_)">
				<g>
					<g>
						<g>
							<g>
								<path d="M17.405,116.787c0.342,0.105,0.698,0.179,1.077,0.179H40.3c2.043,0,3.694-1.651,3.694-3.692
									c0-2.035-1.651-3.69-3.694-3.69H18.482c-0.379,0-0.735,0.074-1.077,0.183V116.787z"/>
							</g>
						</g>
					</g>
				</g>
			</g>
		</g>
		<g>
			<defs>
				<path id="SVGID_39_" d="M19.035,107.145c-0.079,0-0.159-0.004-0.24-0.008c-1.752-0.125-3.109-1.582-3.109-3.341
					c0-0.187,0.016-0.369,0.044-0.549c1.7-11.818,5.612-23.04,11.627-33.351c0.932-1.597,2.982-2.137,4.579-1.204
					c1.597,0.931,2.137,2.981,1.205,4.578c-5.591,9.583-9.222,20.013-10.793,31C22.11,105.932,20.687,107.145,19.035,107.145z"/>
			</defs>
			<defs>
				<path id="SVGID_40_" d="M37.865,63.806c-0.729,0-1.463-0.238-2.08-0.727c-1.447-1.149-1.689-3.256-0.539-4.704
					C49.75,40.12,66.529,31.829,67.236,31.484c1.664-0.808,3.667-0.117,4.475,1.546c0.809,1.662,0.118,3.665-1.544,4.474
					c-0.257,0.127-16.208,8.082-29.678,25.036C39.827,63.373,38.852,63.806,37.865,63.806z"/>
			</defs>
			<defs>
				<path id="SVGID_41_" d="M101.094,175.29c-23.022,0-44.32-6.16-59.972-17.347c-16.403-11.725-25.437-28.229-25.437-46.479
					c0-0.865-0.045-1.718-0.088-2.555c-0.097-1.865-0.196-3.792,0.132-5.791c0.3-1.825,2.02-3.054,3.847-2.76
					c1.825,0.301,3.061,2.024,2.76,3.849c-0.211,1.285-0.135,2.776-0.053,4.358c0.049,0.949,0.098,1.914,0.098,2.897
					c0,32.57,33.838,57.13,78.712,57.13c44.872,0,78.712-24.56,78.712-57.13c0-0.95,0.021-1.862,0.041-2.76
					c0.036-1.529,0.067-2.979-0.015-4.474c-5.659-39.501-36.455-60.169-45.39-65.392c-6.096,8.45-10.604,16.547-13.418,24.101
					c-0.523,1.412-1.916,2.307-3.431,2.167c-10.512-0.932-22.491-0.932-33,0c-1.497,0.136-2.905-0.752-3.433-2.164
					c-3.08-8.258-8.174-17.154-15.14-26.442c-1.109-1.479-0.809-3.578,0.67-4.687c1.479-1.108,3.577-0.809,4.687,0.67
					c6.699,8.932,11.78,17.583,15.128,25.75c9.391-0.696,19.776-0.696,29.173,0c3.344-8.162,8.424-16.812,15.129-25.75
					c0.961-1.284,2.696-1.704,4.143-1.002c1.805,0.878,44.135,22,51.445,71.347c0.051,0.196,0.084,0.399,0.097,0.61
					c0.128,1.918,0.088,3.695,0.046,5.418c-0.02,0.847-0.038,1.709-0.038,2.605c0,18.248-9.034,34.754-25.437,46.479
					C145.412,169.13,124.113,175.29,101.094,175.29z"/>
			</defs>
			<clipPath id="SVGID_42_">
				<use xlink:href="#SVGID_39_"  overflow="visible"/>
			</clipPath>
			<clipPath id="SVGID_43_" clip-path="url(#SVGID_42_)">
				<use xlink:href="#SVGID_40_"  overflow="visible"/>
			</clipPath>
			<clipPath id="SVGID_44_" clip-path="url(#SVGID_43_)">
				<use xlink:href="#SVGID_41_"  overflow="visible"/>
			</clipPath>
			<path clip-path="url(#SVGID_44_)" fill="none" d="M30.248,71.583"/>
			<g clip-path="url(#SVGID_44_)">
				<g>
					<g>
						<g>
							<g>
								<path d="M12.7,103.793c0.344,0.104,0.698,0.178,1.076,0.178h21.82c2.04,0,3.691-1.654,3.691-3.691
									c0-2.041-1.651-3.69-3.691-3.69h-21.82c-0.377,0-0.731,0.071-1.076,0.177V103.793z"/>
							</g>
						</g>
					</g>
				</g>
			</g>
		</g>
		<g>
			<defs>
				<path id="SVGID_45_" d="M19.035,107.145c-0.079,0-0.159-0.004-0.24-0.008c-1.752-0.125-3.109-1.582-3.109-3.341
					c0-0.187,0.016-0.369,0.044-0.549c1.7-11.818,5.612-23.04,11.627-33.351c0.932-1.597,2.982-2.137,4.579-1.204
					c1.597,0.931,2.137,2.981,1.205,4.578c-5.591,9.583-9.222,20.013-10.793,31C22.11,105.932,20.687,107.145,19.035,107.145z"/>
			</defs>
			<defs>
				<path id="SVGID_46_" d="M37.865,63.806c-0.729,0-1.463-0.238-2.08-0.727c-1.447-1.149-1.689-3.256-0.539-4.704
					C49.75,40.12,66.529,31.829,67.236,31.484c1.664-0.808,3.667-0.117,4.475,1.546c0.809,1.662,0.118,3.665-1.544,4.474
					c-0.257,0.127-16.208,8.082-29.678,25.036C39.827,63.373,38.852,63.806,37.865,63.806z"/>
			</defs>
			<defs>
				<path id="SVGID_47_" d="M101.094,175.29c-23.022,0-44.32-6.16-59.972-17.347c-16.403-11.725-25.437-28.229-25.437-46.479
					c0-0.865-0.045-1.718-0.088-2.555c-0.097-1.865-0.196-3.792,0.132-5.791c0.3-1.825,2.02-3.054,3.847-2.76
					c1.825,0.301,3.061,2.024,2.76,3.849c-0.211,1.285-0.135,2.776-0.053,4.358c0.049,0.949,0.098,1.914,0.098,2.897
					c0,32.57,33.838,57.13,78.712,57.13c44.872,0,78.712-24.56,78.712-57.13c0-0.95,0.021-1.862,0.041-2.76
					c0.036-1.529,0.067-2.979-0.015-4.474c-5.659-39.501-36.455-60.169-45.39-65.392c-6.096,8.45-10.604,16.547-13.418,24.101
					c-0.523,1.412-1.916,2.307-3.431,2.167c-10.512-0.932-22.491-0.932-33,0c-1.497,0.136-2.905-0.752-3.433-2.164
					c-3.08-8.258-8.174-17.154-15.14-26.442c-1.109-1.479-0.809-3.578,0.67-4.687c1.479-1.108,3.577-0.809,4.687,0.67
					c6.699,8.932,11.78,17.583,15.128,25.75c9.391-0.696,19.776-0.696,29.173,0c3.344-8.162,8.424-16.812,15.129-25.75
					c0.961-1.284,2.696-1.704,4.143-1.002c1.805,0.878,44.135,22,51.445,71.347c0.051,0.196,0.084,0.399,0.097,0.61
					c0.128,1.918,0.088,3.695,0.046,5.418c-0.02,0.847-0.038,1.709-0.038,2.605c0,18.248-9.034,34.754-25.437,46.479
					C145.412,169.13,124.113,175.29,101.094,175.29z"/>
			</defs>
			<clipPath id="SVGID_48_">
				<use xlink:href="#SVGID_45_"  overflow="visible"/>
			</clipPath>
			<clipPath id="SVGID_49_" clip-path="url(#SVGID_48_)">
				<use xlink:href="#SVGID_46_"  overflow="visible"/>
			</clipPath>
			<clipPath id="SVGID_50_" clip-path="url(#SVGID_49_)">
				<use xlink:href="#SVGID_47_"  overflow="visible"/>
			</clipPath>
			<path clip-path="url(#SVGID_50_)" fill="none" d="M30.248,71.583"/>
			<g clip-path="url(#SVGID_50_)">
				<g>
					<g>
						<g>
							<g>
								<path d="M189.484,129.782c-0.342,0.106-0.695,0.179-1.075,0.179h-21.82c-2.036,0-3.69-1.654-3.69-3.689
									c0-2.041,1.654-3.691,3.69-3.691h21.82c0.38,0,0.733,0.072,1.075,0.18V129.782z"/>
							</g>
						</g>
					</g>
				</g>
			</g>
		</g>
		<g>
			<defs>
				<path id="SVGID_51_" d="M19.035,107.145c-0.079,0-0.159-0.004-0.24-0.008c-1.752-0.125-3.109-1.582-3.109-3.341
					c0-0.187,0.016-0.369,0.044-0.549c1.7-11.818,5.612-23.04,11.627-33.351c0.932-1.597,2.982-2.137,4.579-1.204
					c1.597,0.931,2.137,2.981,1.205,4.578c-5.591,9.583-9.222,20.013-10.793,31C22.11,105.932,20.687,107.145,19.035,107.145z"/>
			</defs>
			<defs>
				<path id="SVGID_52_" d="M37.865,63.806c-0.729,0-1.463-0.238-2.08-0.727c-1.447-1.149-1.689-3.256-0.539-4.704
					C49.75,40.12,66.529,31.829,67.236,31.484c1.664-0.808,3.667-0.117,4.475,1.546c0.809,1.662,0.118,3.665-1.544,4.474
					c-0.257,0.127-16.208,8.082-29.678,25.036C39.827,63.373,38.852,63.806,37.865,63.806z"/>
			</defs>
			<defs>
				<path id="SVGID_53_" d="M101.094,175.29c-23.022,0-44.32-6.16-59.972-17.347c-16.403-11.725-25.437-28.229-25.437-46.479
					c0-0.865-0.045-1.718-0.088-2.555c-0.097-1.865-0.196-3.792,0.132-5.791c0.3-1.825,2.02-3.054,3.847-2.76
					c1.825,0.301,3.061,2.024,2.76,3.849c-0.211,1.285-0.135,2.776-0.053,4.358c0.049,0.949,0.098,1.914,0.098,2.897
					c0,32.57,33.838,57.13,78.712,57.13c44.872,0,78.712-24.56,78.712-57.13c0-0.95,0.021-1.862,0.041-2.76
					c0.036-1.529,0.067-2.979-0.015-4.474c-5.659-39.501-36.455-60.169-45.39-65.392c-6.096,8.45-10.604,16.547-13.418,24.101
					c-0.523,1.412-1.916,2.307-3.431,2.167c-10.512-0.932-22.491-0.932-33,0c-1.497,0.136-2.905-0.752-3.433-2.164
					c-3.08-8.258-8.174-17.154-15.14-26.442c-1.109-1.479-0.809-3.578,0.67-4.687c1.479-1.108,3.577-0.809,4.687,0.67
					c6.699,8.932,11.78,17.583,15.128,25.75c9.391-0.696,19.776-0.696,29.173,0c3.344-8.162,8.424-16.812,15.129-25.75
					c0.961-1.284,2.696-1.704,4.143-1.002c1.805,0.878,44.135,22,51.445,71.347c0.051,0.196,0.084,0.399,0.097,0.61
					c0.128,1.918,0.088,3.695,0.046,5.418c-0.02,0.847-0.038,1.709-0.038,2.605c0,18.248-9.034,34.754-25.437,46.479
					C145.412,169.13,124.113,175.29,101.094,175.29z"/>
			</defs>
			<clipPath id="SVGID_54_">
				<use xlink:href="#SVGID_51_"  overflow="visible"/>
			</clipPath>
			<clipPath id="SVGID_55_" clip-path="url(#SVGID_54_)">
				<use xlink:href="#SVGID_52_"  overflow="visible"/>
			</clipPath>
			<clipPath id="SVGID_56_" clip-path="url(#SVGID_55_)">
				<use xlink:href="#SVGID_53_"  overflow="visible"/>
			</clipPath>
			<path clip-path="url(#SVGID_56_)" fill="none" d="M30.248,71.583"/>
			<g clip-path="url(#SVGID_56_)">
				<g>
					<g>
						<g>
							<g>
								<path d="M184.777,116.787c-0.342,0.105-0.696,0.179-1.07,0.179h-21.823c-2.042,0-3.69-1.651-3.69-3.692
									c0-2.035,1.648-3.69,3.69-3.69h21.823c0.374,0,0.729,0.074,1.07,0.183V116.787z"/>
							</g>
						</g>
					</g>
				</g>
			</g>
		</g>
		<g>
			<defs>
				<path id="SVGID_57_" d="M19.035,107.145c-0.079,0-0.159-0.004-0.24-0.008c-1.752-0.125-3.109-1.582-3.109-3.341
					c0-0.187,0.016-0.369,0.044-0.549c1.7-11.818,5.612-23.04,11.627-33.351c0.932-1.597,2.982-2.137,4.579-1.204
					c1.597,0.931,2.137,2.981,1.205,4.578c-5.591,9.583-9.222,20.013-10.793,31C22.11,105.932,20.687,107.145,19.035,107.145z"/>
			</defs>
			<defs>
				<path id="SVGID_58_" d="M37.865,63.806c-0.729,0-1.463-0.238-2.08-0.727c-1.447-1.149-1.689-3.256-0.539-4.704
					C49.75,40.12,66.529,31.829,67.236,31.484c1.664-0.808,3.667-0.117,4.475,1.546c0.809,1.662,0.118,3.665-1.544,4.474
					c-0.257,0.127-16.208,8.082-29.678,25.036C39.827,63.373,38.852,63.806,37.865,63.806z"/>
			</defs>
			<defs>
				<path id="SVGID_59_" d="M101.094,175.29c-23.022,0-44.32-6.16-59.972-17.347c-16.403-11.725-25.437-28.229-25.437-46.479
					c0-0.865-0.045-1.718-0.088-2.555c-0.097-1.865-0.196-3.792,0.132-5.791c0.3-1.825,2.02-3.054,3.847-2.76
					c1.825,0.301,3.061,2.024,2.76,3.849c-0.211,1.285-0.135,2.776-0.053,4.358c0.049,0.949,0.098,1.914,0.098,2.897
					c0,32.57,33.838,57.13,78.712,57.13c44.872,0,78.712-24.56,78.712-57.13c0-0.95,0.021-1.862,0.041-2.76
					c0.036-1.529,0.067-2.979-0.015-4.474c-5.659-39.501-36.455-60.169-45.39-65.392c-6.096,8.45-10.604,16.547-13.418,24.101
					c-0.523,1.412-1.916,2.307-3.431,2.167c-10.512-0.932-22.491-0.932-33,0c-1.497,0.136-2.905-0.752-3.433-2.164
					c-3.08-8.258-8.174-17.154-15.14-26.442c-1.109-1.479-0.809-3.578,0.67-4.687c1.479-1.108,3.577-0.809,4.687,0.67
					c6.699,8.932,11.78,17.583,15.128,25.75c9.391-0.696,19.776-0.696,29.173,0c3.344-8.162,8.424-16.812,15.129-25.75
					c0.961-1.284,2.696-1.704,4.143-1.002c1.805,0.878,44.135,22,51.445,71.347c0.051,0.196,0.084,0.399,0.097,0.61
					c0.128,1.918,0.088,3.695,0.046,5.418c-0.02,0.847-0.038,1.709-0.038,2.605c0,18.248-9.034,34.754-25.437,46.479
					C145.412,169.13,124.113,175.29,101.094,175.29z"/>
			</defs>
			<clipPath id="SVGID_60_">
				<use xlink:href="#SVGID_57_"  overflow="visible"/>
			</clipPath>
			<clipPath id="SVGID_61_" clip-path="url(#SVGID_60_)">
				<use xlink:href="#SVGID_58_"  overflow="visible"/>
			</clipPath>
			<clipPath id="SVGID_62_" clip-path="url(#SVGID_61_)">
				<use xlink:href="#SVGID_59_"  overflow="visible"/>
			</clipPath>
			<path clip-path="url(#SVGID_62_)" fill="none" d="M30.248,71.583"/>
			<g clip-path="url(#SVGID_62_)">
				<g>
					<g>
						<g>
							<g>
								<path d="M189.484,103.793c-0.342,0.104-0.695,0.178-1.075,0.178h-21.82c-2.036,0-3.69-1.654-3.69-3.691
									c0-2.041,1.654-3.69,3.69-3.69h21.82c0.38,0,0.733,0.071,1.075,0.177V103.793z"/>
							</g>
						</g>
					</g>
				</g>
			</g>
		</g>
		<g>
			<defs>
				<path id="SVGID_63_" d="M19.035,107.145c-0.079,0-0.159-0.004-0.24-0.008c-1.752-0.125-3.109-1.582-3.109-3.341
					c0-0.187,0.016-0.369,0.044-0.549c1.7-11.818,5.612-23.04,11.627-33.351c0.932-1.597,2.982-2.137,4.579-1.204
					c1.597,0.931,2.137,2.981,1.205,4.578c-5.591,9.583-9.222,20.013-10.793,31C22.11,105.932,20.687,107.145,19.035,107.145z"/>
			</defs>
			<defs>
				<path id="SVGID_64_" d="M37.865,63.806c-0.729,0-1.463-0.238-2.08-0.727c-1.447-1.149-1.689-3.256-0.539-4.704
					C49.75,40.12,66.529,31.829,67.236,31.484c1.664-0.808,3.667-0.117,4.475,1.546c0.809,1.662,0.118,3.665-1.544,4.474
					c-0.257,0.127-16.208,8.082-29.678,25.036C39.827,63.373,38.852,63.806,37.865,63.806z"/>
			</defs>
			<defs>
				<path id="SVGID_65_" d="M101.094,175.29c-23.022,0-44.32-6.16-59.972-17.347c-16.403-11.725-25.437-28.229-25.437-46.479
					c0-0.865-0.045-1.718-0.088-2.555c-0.097-1.865-0.196-3.792,0.132-5.791c0.3-1.825,2.02-3.054,3.847-2.76
					c1.825,0.301,3.061,2.024,2.76,3.849c-0.211,1.285-0.135,2.776-0.053,4.358c0.049,0.949,0.098,1.914,0.098,2.897
					c0,32.57,33.838,57.13,78.712,57.13c44.872,0,78.712-24.56,78.712-57.13c0-0.95,0.021-1.862,0.041-2.76
					c0.036-1.529,0.067-2.979-0.015-4.474c-5.659-39.501-36.455-60.169-45.39-65.392c-6.096,8.45-10.604,16.547-13.418,24.101
					c-0.523,1.412-1.916,2.307-3.431,2.167c-10.512-0.932-22.491-0.932-33,0c-1.497,0.136-2.905-0.752-3.433-2.164
					c-3.08-8.258-8.174-17.154-15.14-26.442c-1.109-1.479-0.809-3.578,0.67-4.687c1.479-1.108,3.577-0.809,4.687,0.67
					c6.699,8.932,11.78,17.583,15.128,25.75c9.391-0.696,19.776-0.696,29.173,0c3.344-8.162,8.424-16.812,15.129-25.75
					c0.961-1.284,2.696-1.704,4.143-1.002c1.805,0.878,44.135,22,51.445,71.347c0.051,0.196,0.084,0.399,0.097,0.61
					c0.128,1.918,0.088,3.695,0.046,5.418c-0.02,0.847-0.038,1.709-0.038,2.605c0,18.248-9.034,34.754-25.437,46.479
					C145.412,169.13,124.113,175.29,101.094,175.29z"/>
			</defs>
			<clipPath id="SVGID_66_">
				<use xlink:href="#SVGID_63_"  overflow="visible"/>
			</clipPath>
			<clipPath id="SVGID_67_" clip-path="url(#SVGID_66_)">
				<use xlink:href="#SVGID_64_"  overflow="visible"/>
			</clipPath>
			<clipPath id="SVGID_68_" clip-path="url(#SVGID_67_)">
				<use xlink:href="#SVGID_65_"  overflow="visible"/>
			</clipPath>
			<path clip-path="url(#SVGID_68_)" fill="none" d="M30.248,71.583"/>
			<g clip-path="url(#SVGID_68_)">
				<g>
					<g>
						<g>
							<g>
								<g>
									<path d="M84.532,56.849c-0.104,0.344-0.176,0.7-0.176,1.077v21.82c0,2.038,1.654,3.692,3.691,3.692
										c2.04,0,3.693-1.655,3.693-3.692v-21.82c0-0.376-0.077-0.732-0.182-1.077H84.532z"/>
								</g>
							</g>
						</g>
					</g>
				</g>
				<g>
					<g>
						<g>
							<g>
								<g>
									<path d="M97.527,61.556c-0.101,0.341-0.175,0.698-0.175,1.076v21.82c0,2.039,1.65,3.692,3.687,3.692
										c2.042,0,3.693-1.654,3.693-3.692v-21.82c0-0.378-0.071-0.735-0.176-1.076H97.527z"/>
								</g>
							</g>
						</g>
					</g>
				</g>
				<g>
					<g>
						<g>
							<g>
								<g>
									<path d="M110.523,56.849c-0.106,0.344-0.176,0.7-0.176,1.077v21.82c0,2.038,1.653,3.692,3.688,3.692
										c2.041,0,3.694-1.655,3.694-3.692v-21.82c0-0.376-0.076-0.732-0.182-1.077H110.523z"/>
								</g>
							</g>
						</g>
					</g>
				</g>
			</g>
		</g>
		<g>
			
				<path id="SVGID_4_" fill="none" stroke="#000000" stroke-width="5" stroke-linecap="round" stroke-linejoin="round" stroke-miterlimit="10" d="
				M30.248,71.583"/>
		</g>
	</g>
</g>
</svg>
