<?xml version="1.0" encoding="utf-8"?>
<!-- Generator: Adobe Illustrator 16.0.0, SVG Export Plug-In . SVG Version: 6.00 Build 0)  -->
<!DOCTYPE svg PUBLIC "-//W3C//DTD SVG 1.1//EN" "http://www.w3.org/Graphics/SVG/1.1/DTD/svg11.dtd">
<svg version="1.1" id="Layer_1" xmlns="http://www.w3.org/2000/svg" xmlns:xlink="http://www.w3.org/1999/xlink" x="0px" y="0px"
	 width="200px" height="200px" viewBox="0 0 200 200" enable-background="new 0 0 200 200" xml:space="preserve">
<g>
	<g>
		<path fill="#F1F2F2" d="M126.247,81.284l-4.645-12.347c10.084-6.533,14.643-19.407,10.24-31.113
			c-5.089-13.509-20.151-20.333-33.654-15.253c-7.451,2.801-12.853,8.648-15.359,15.588c-6.464-3.564-14.381-4.399-21.823-1.599
			c-13.509,5.086-20.338,20.151-15.253,33.661c4.406,11.708,16.318,18.384,28.212,16.644l20.5,54.482
			c-10.09,6.532-14.643,19.402-10.24,31.11c5.083,13.509,20.15,20.341,33.659,15.254c7.442-2.804,12.848-8.646,15.357-15.588
			c6.458,3.563,14.372,4.397,21.819,1.595c13.51-5.083,20.337-20.151,15.254-33.661c-4.409-11.701-16.318-18.378-28.21-16.64
			l-4.19-11.137"/>
	</g>
	<g>
		<g>
			<path fill="#D2D4D5" d="M62.839,86.067l-1.868-4.962c-2.521,0.369-5.042,0.34-7.494-0.02
				C56.226,83.373,59.423,85.063,62.839,86.067z"/>
		</g>
		<g>
			<path fill="#E6E7E8" d="M118.851,32.068c4.409,11.708-0.149,24.579-10.239,31.107l4.65,12.347l11.662,31.001l4.195,11.138
				c3.788-0.559,7.569-0.245,11.121,0.801l-2.326-6.182l-11.667-30.996l-4.645-12.347c10.084-6.533,14.643-19.407,10.24-31.113
				c-3.483-9.254-11.651-15.368-20.797-16.667C114.442,23.961,117.188,27.646,118.851,32.068z"/>
		</g>
		<g>
			<path fill="#E6E7E8" d="M149.6,123.438c3.367,2.794,6.072,6.478,7.724,10.869c5.082,13.504-1.743,28.572-15.247,33.655
				c-7.448,2.803-15.368,1.969-21.826-1.594c-2.51,6.935-7.908,12.783-15.356,15.586c-4.253,1.601-8.659,2.015-12.86,1.419
				c6.982,5.771,16.763,7.757,25.851,4.338c7.442-2.804,12.848-8.646,15.357-15.588c6.458,3.563,14.372,4.397,21.819,1.595
				c13.51-5.083,20.337-20.151,15.254-33.661C166.844,130.837,158.704,124.764,149.6,123.438z"/>
		</g>
	</g>
	<g>
		<path d="M146.14,171.24c-6.861,2.581-14.344,2.61-21.158,0.175c-3.522,6.326-9.163,11.236-16.024,13.816
			c-15.891,5.981-33.682-2.086-39.663-17.978c-4.605-12.237-0.812-26.115,9.008-34.392L60.27,84.945
			c-12.836,0.248-24.842-7.684-29.447-19.924c-5.98-15.891,2.083-33.679,17.973-39.659c6.855-2.581,14.341-2.609,21.156-0.177
			c3.523-6.32,9.169-11.235,16.027-13.816c15.889-5.98,33.679,2.083,39.654,17.972c4.61,12.241,0.812,26.116-9.003,34.395
			l1.037,2.745c0.909,2.407-0.312,5.094-2.718,6.001c-2.411,0.907-5.1-0.314-6.003-2.72l-2.268-6.026
			c-0.771-2.049-0.012-4.362,1.83-5.55c8.393-5.442,11.932-16.191,8.403-25.563c-4.167-11.078-16.575-16.701-27.649-12.532
			c-5.877,2.212-10.476,6.883-12.623,12.812c-0.927,2.56-4.248,3.812-6.631,2.496c-5.523-3.043-12.059-3.524-17.933-1.314
			c-11.08,4.168-16.701,16.576-12.53,27.654c3.525,9.371,13.27,15.121,23.176,13.676c2.17-0.319,4.259,0.915,5.037,2.964
			l20.502,54.485c0.771,2.05,0.011,4.36-1.833,5.549c-8.398,5.445-11.935,16.19-8.407,25.562
			c4.167,11.079,16.574,16.702,27.656,12.538c5.87-2.213,10.469-6.881,12.61-12.815c0.927-2.563,4.248-3.81,6.637-2.495
			c5.525,3.048,12.058,3.525,17.93,1.315c11.08-4.167,16.703-16.577,12.53-27.657c-3.528-9.37-13.272-15.12-23.173-13.676
			c-2.164,0.317-4.26-0.921-5.031-2.97l-4.195-11.138c-0.904-2.406,0.316-5.094,2.722-5.998c2.406-0.909,5.094,0.312,6.004,2.718
			l2.953,7.856c12.835-0.245,24.842,7.689,29.446,19.924C170.09,147.468,162.025,165.26,146.14,171.24z"/>
	</g>
	<g>
		<path d="M122.593,92.816c-2.406,0.903-5.094-0.313-5.998-2.72l-0.696-1.856c-0.909-2.409,0.312-5.094,2.717-6
			c2.412-0.91,5.1,0.308,6.003,2.72l0.696,1.85C126.224,89.218,125.01,91.907,122.593,92.816z"/>
	</g>
</g>
</svg>
