<?xml version="1.0" encoding="utf-8"?>
<!-- Generator: Adobe Illustrator 16.0.0, SVG Export Plug-In . SVG Version: 6.00 Build 0)  -->
<!DOCTYPE svg PUBLIC "-//W3C//DTD SVG 1.1//EN" "http://www.w3.org/Graphics/SVG/1.1/DTD/svg11.dtd">
<svg version="1.1" id="Layer_1" xmlns="http://www.w3.org/2000/svg" xmlns:xlink="http://www.w3.org/1999/xlink" x="0px" y="0px"
	 width="200px" height="200px" viewBox="0 0 200 200" enable-background="new 0 0 200 200" xml:space="preserve">
<g>
	<g>
		<path fill="#FCA96B" d="M153.46,105.617c-9.872-7.955-23.551-10.698-36.338-6.032c-12.782,4.667-21.479,15.58-23.897,28.031
			c-10.552,12.239-14.778,27.556-9.762,41.299c8.244,22.568,38.215,32.349,66.96,21.852c28.735-10.491,45.351-37.284,37.113-59.85
			C182.514,117.174,169.414,108.178,153.46,105.617z"/>
	</g>
	<g>
		<path fill="#FCA96B" d="M90.353,57.922c10.503,15.746,7.116,27.112-2.254,33.365S66.927,96.309,56.424,80.57
			c-10.509-15.746-13.59-36.804-4.214-43.057C61.574,31.263,79.843,42.183,90.353,57.922z"/>
	</g>
	<g>
		<path fill="#F29555" d="M90.353,57.922C82.667,46.408,70.828,37.482,61.36,35.96c7.882,3.589,16.297,10.944,22.237,19.836
			c10.509,15.739,7.117,27.112-2.253,33.365c-3.901,2.603-8.231,3.883-12.714,3.387c6.835,3.625,13.626,2.64,19.469-1.262
			C97.469,85.034,100.855,73.667,90.353,57.922z"/>
	</g>
	<g>
		<path fill="#FCA96B" d="M145.235,46.874c3.258,18.758-4.486,27.841-15.65,29.776c-11.165,1.941-21.521-3.993-24.779-22.751
			c-3.265-18.759,2.48-39.389,13.645-41.324C129.609,10.633,141.974,28.115,145.235,46.874z"/>
	</g>
	<g>
		<path fill="#FCA96B" d="M189.545,70.851c-2.113,15.708-10.54,20.982-19.898,19.726c-9.346-1.262-16.088-8.568-13.97-24.289
			c2.119-15.715,11.851-30.658,21.203-29.399C186.231,38.153,191.664,55.135,189.545,70.851z"/>
	</g>
	<g>
		<path fill="#FCA96B" d="M39.876,130.354c12.83,10.17,22.874,8.051,28.925,0.404c6.051-7.631,5.831-17.896-7.006-28.062
			c-12.837-10.172-30.781-14.306-36.832-6.675C18.913,103.658,27.045,120.181,39.876,130.354z"/>
	</g>
	<g>
		<g>
			<path fill="#F29555" d="M144.715,102.39c2.119,0.344,4.188,0.809,6.197,1.366c-3.797-2.565-8.044-4.427-12.515-5.469
				C140.627,99.445,142.746,100.804,144.715,102.39z"/>
		</g>
		<g>
			<path fill="#F29555" d="M159.052,106.818c9.211,4.428,16.333,11.55,19.738,20.871c8.237,22.565-8.384,49.365-37.122,59.855
				c-13.314,4.863-26.904,5.365-38.467,2.261c13.075,6.289,30.352,7.122,47.222,0.961c28.735-10.491,45.351-37.284,37.113-59.85
				C183.114,118.815,172.434,110.407,159.052,106.818z"/>
		</g>
	</g>
	<g>
		<path fill="#F29555" d="M119.896,12.443c7.632,5.693,14.325,18.134,16.585,31.204c3.271,18.758-4.477,27.835-15.647,29.782
			c-1.941,0.337-3.858,0.417-5.714,0.245c4.22,3.038,9.248,3.883,14.466,2.976c11.164-1.935,18.908-11.018,15.65-29.776
			C142.115,28.923,130.662,12.155,119.896,12.443z"/>
	</g>
	<g>
		<path fill="#F29555" d="M176.88,36.888c-0.943-0.125-1.893-0.083-2.83,0.107c5.573,5.913,8.366,18.63,6.749,30.628
			c-2.052,15.274-10.074,20.663-19.12,19.793c2.26,1.721,4.979,2.75,7.968,3.16c9.358,1.256,17.785-4.018,19.898-19.726
			C191.664,55.135,186.231,38.153,176.88,36.888z"/>
	</g>
	<g>
		<path fill="#F29555" d="M61.795,102.696c-5.763-4.568-12.561-7.912-18.851-9.529c3.509,1.678,6.957,3.809,10.099,6.302
			c12.837,10.166,13.063,20.43,7.013,28.061c-3.663,4.624-8.795,7.205-15.115,6.287c10.417,6.008,18.63,3.546,23.86-3.06
			C74.852,123.127,74.631,112.862,61.795,102.696z"/>
	</g>
	<g>
		<path d="M178.784,150.628c-1.035,0.38-2.205,0.429-3.338,0.073c-2.75-0.857-4.28-3.784-3.417-6.534
			c2.149-6.871,2.095-14.064-0.166-20.237c-0.985-2.707,0.404-5.702,3.105-6.688h0.006c2.707-0.992,5.696,0.398,6.682,3.105
			c3.044,8.316,3.16,17.886,0.318,26.938C181.473,148.895,180.26,150.089,178.784,150.628z"/>
	</g>
	<g>
		<path d="M164.992,172.376c-1.88,0.691-4.072,0.251-5.549-1.286c-1.996-2.076-1.929-5.378,0.147-7.374
			c2.75-2.64,5.193-5.573,7.251-8.728c1.58-2.406,4.813-3.086,7.221-1.5c2.413,1.58,3.087,4.808,1.507,7.214
			c-2.493,3.81-5.445,7.355-8.758,10.54C166.278,171.757,165.653,172.137,164.992,172.376z"/>
	</g>
	<g>
		<path d="M141.436,186.896c-2.707,0.985-5.702-0.404-6.688-3.111c-0.992-2.707,0.404-5.695,3.105-6.688
			c4.495-1.642,8.767-3.748,12.698-6.271c2.413-1.562,5.653-0.846,7.202,1.574c1.556,2.425,0.852,5.652-1.573,7.208
			C151.604,182.536,146.644,184.991,141.436,186.896z"/>
	</g>
	<g>
		<path d="M141.436,186.896c-31.388,11.458-64.422,0.257-73.633-24.969c-5.34-14.625-1.66-31.525,9.823-45.452
			c3.222-14.189,13.204-25.556,26.935-30.565c13.725-5.01,28.687-2.756,40.301,6.014c17.755,3.252,31.461,13.803,36.801,28.428
			c0.986,2.701-0.403,5.695-3.11,6.682c-2.707,0.992-5.702-0.404-6.688-3.111c-4.158-11.385-15.371-19.585-29.999-21.931
			c-0.9-0.146-1.746-0.521-2.45-1.09c-8.887-7.159-20.577-9.101-31.276-5.193c-10.7,3.901-18.386,12.922-20.566,24.123
			c-0.171,0.888-0.576,1.721-1.169,2.413c-9.677,11.214-12.965,24.715-8.801,36.105c7.239,19.824,34.266,28.239,60.251,18.747
			c2.713-0.986,5.705,0.404,6.69,3.11C145.535,182.915,144.139,185.904,141.436,186.896z"/>
	</g>
	<g>
		<path d="M76.689,95.997C70.069,98.416,57.11,99.72,44.8,81.268c-5.5-8.231-9.229-18.048-10.24-26.929
			c-1.17-10.261,1.384-18.042,7.171-21.91c0.937-0.628,1.96-1.142,3.038-1.534c12.818-4.682,30.86,8.066,40.892,23.095
			c5.53,8.286,7.894,16.052,7,23.083c-0.821,6.516-4.416,12.077-10.399,16.07C80.461,94.343,78.587,95.305,76.689,95.997z
			 M47.629,38.729c-0.453,0.168-0.876,0.38-1.262,0.64c-2.977,1.987-4.293,7.229-3.515,14.027
			c0.863,7.606,4.103,16.077,8.886,23.242c4.795,7.184,12.518,15.017,22.09,11.52c1.274-0.459,2.554-1.121,3.797-1.954
			c3.969-2.652,6.241-6.069,6.761-10.179c0.625-4.979-1.28-10.834-5.665-17.399C69.132,44.247,54.391,36.26,47.629,38.729z"/>
	</g>
	<g>
		<path d="M126.204,76.301c-1.464,0.539-3.031,0.955-4.654,1.237c-7.116,1.237-13.584-0.318-18.704-4.495
			c-5.518-4.507-9.18-11.79-10.901-21.656c-3.154-18.165,1.531-40.727,14.594-45.497c0.796-0.291,1.616-0.508,2.449-0.655
			c14.552-2.523,28.093,17.454,31.607,37.698C144.745,66.796,131.918,74.219,126.204,76.301z M109.398,13.726
			c-8.219,3.004-11.715,21.943-9.229,36.234c1.36,7.83,4.042,13.424,7.956,16.621c3.228,2.64,7.264,3.559,11.998,2.738
			c1.133-0.202,2.217-0.484,3.221-0.851c10.276-3.754,10.589-15.182,9.033-24.105c-2.951-17.007-13.834-32.318-21.961-30.909
			C110.072,13.515,109.729,13.606,109.398,13.726z"/>
	</g>
	<g>
		<path d="M170.394,90.516c-3.074,1.127-6.455,1.451-10.044,0.968c-4.948-0.668-20.813-4.734-17.555-28.971
			c1.767-13.118,9.055-28.401,19.558-32.241c2.119-0.772,4.25-1.02,6.333-0.738c6.051,0.812,11.023,5.889,14.012,14.294
			c2.542,7.156,3.362,16.03,2.242,24.353C182.942,82.983,175.924,88.495,170.394,90.516z M165.219,38.11
			c-5.42,1.978-12.371,12.298-14.153,25.514c-1.096,8.146-0.178,18.159,10.399,19.592c2.229,0.3,4.274,0.123,6.062-0.533
			c6.118-2.235,8.348-9.726,9.144-15.617c0.949-7.046,0.276-14.496-1.831-20.443c-1.837-5.16-4.55-8.458-7.263-8.822
			C166.829,37.7,166.058,37.804,165.219,38.11z"/>
	</g>
	<g>
		<path d="M32.57,131.046c-1.323,0.478-2.848,0.281-4.03-0.649c-6.78-5.377-12.519-12.536-15.746-19.659
			c-3.779-8.348-3.724-15.635,0.159-20.528c1.433-1.807,4.054-2.113,5.861-0.68c1.8,1.433,2.107,4.054,0.674,5.861
			c-1.782,2.253-1.452,6.699,0.906,11.898c2.695,5.953,7.557,11.992,13.327,16.566c1.807,1.434,2.106,4.055,0.673,5.861
			C33.905,130.342,33.262,130.788,32.57,131.046z"/>
	</g>
	<g>
		<path d="M54.054,137.038c-1.819,0.668-3.736,1.048-5.732,1.133c-6.265,0.282-12.922-2.339-19.781-7.774
			c-1.807-1.433-2.107-4.055-0.68-5.861c1.433-1.807,4.054-2.112,5.861-0.68c5.168,4.098,10.093,6.167,14.232,5.983
			c3.412-0.152,6.382-1.8,8.832-4.899c2.456-3.099,3.38-6.363,2.75-9.713c-0.771-4.079-3.907-8.391-9.076-12.487
			c-12.175-9.646-27.198-12.113-30.97-7.349c-1.427,1.807-4.055,2.106-5.855,0.673c-1.807-1.427-2.113-4.054-0.68-5.854
			c8.108-10.228,28.619-5.163,42.686,5.989c6.859,5.438,10.926,11.318,12.096,17.478c1.084,5.757-0.441,11.44-4.41,16.444
			C60.711,133.422,57.569,135.759,54.054,137.038z"/>
	</g>
</g>
</svg>
